<?xml version="1.0" encoding="utf-8"?>
<!-- Generator: Adobe Illustrator 27.5.0, SVG Export Plug-In . SVG Version: 6.00 Build 0)  -->
<svg version="1.1" xmlns="http://www.w3.org/2000/svg" xmlns:xlink="http://www.w3.org/1999/xlink" x="0px" y="0px"
	 viewBox="0 0 500 500" style="enable-background:new 0 0 500 500;" xml:space="preserve">
<g id="BACKGROUND">
	<rect style="fill:none;" width="500" height="500"/>
</g>
<g id="OBJECTS">
	<g>
		<g>
			<g>
				<path style="fill:#347A34;" d="M108.047,92.833c0,0,11.971,44.819,3.305,74.402c3.573,0.77,5.542,0,5.542,0
					S122.017,110.461,108.047,92.833z"/>
				<path style="fill:#347A34;" d="M130.102,115.986c0,0-11,33.5-10.75,50.25c-2.25,6.25-5.788,0-5.788,0
					S116.894,132.486,130.102,115.986z"/>
				<path style="fill:#347A34;" d="M130.102,128.486c0,0-6.727,27.9-5.672,41.571c-1.407,5.215-4.448,0.281-4.448,0.281
					S120.801,142.605,130.102,128.486z"/>
				<path style="fill:#347A34;" d="M132.05,164.611c0,0,11.802-13.875,20.052-16.375c2-2.125,0-2,0-2s-18.25,9.375-23.125,19
					C129.977,167.736,132.05,164.611,132.05,164.611z"/>
				<path style="fill:#347A34;" d="M133.023,148.888c0,0-6.781,7.175-7.442,20.829c-2.979,0.644-3.445-1.431-3.445-1.431
					s6.091-22.773,15.591-23.599C134.727,146.736,133.023,148.888,133.023,148.888z"/>
				<g>
					<path style="fill:#347A34;" d="M114.929,160.819c0,0-0.994-13.598-12.58-23.271c-5.712-4.769-4.419-8.41-9.123-9.693
						c-4.704-1.283-11.547-5.274-13.4-7.128c-1.853-1.853-29.681-8.355-36.808-5.789c7.983,1.996,15.675,13.482,19.667,13.767
						c3.991,0.285,9.131,4.887,14.833,8.878c5.702,3.991,10.148,1.533,13.855,3.386C95.08,142.822,108.622,150.098,114.929,160.819z
						"/>
					<g>
						<path style="fill:#2A6B2A;" d="M107.868,149.939c-1.735-2.241-3.576-4.397-5.453-6.506c-0.948-1.045-1.924-2.067-2.966-3
							c-1.04-0.917-2.188-1.748-3.35-2.527c-1.169-0.775-2.394-1.452-3.656-2.08c-1.261-0.63-2.56-1.238-3.782-2.004
							c-1.228-0.739-2.369-1.672-3.433-2.566c-1.085-0.846-2.304-1.557-3.54-2.222c-4.991-2.615-10.284-4.673-15.528-6.799
							l-15.808-6.248c5.33,1.924,10.686,3.774,15.989,5.779c5.305,1.996,10.606,4.033,15.676,6.649
							c1.26,0.669,2.506,1.38,3.662,2.269c1.114,0.916,2.179,1.771,3.369,2.517c1.174,0.751,2.441,1.359,3.707,2.005
							c1.269,0.645,2.521,1.352,3.707,2.153c1.178,0.812,2.342,1.637,3.385,2.642c1.037,0.992,1.984,2.056,2.904,3.14
							C104.599,145.301,106.25,147.613,107.868,149.939z"/>
						<path style="fill:#2A6B2A;" d="M94.6,130.41c1.526,1.504,2.903,3.169,4.063,4.987c0.587,0.904,1.093,1.864,1.506,2.867
							c0.413,1.002,0.716,2.064,0.801,3.165l0.015,0.199l-0.197,0.03c-1.082,0.163-2.165,0.312-3.256,0.412
							c-1.09,0.092-2.185,0.163-3.282,0.133c-1.096-0.021-2.192-0.117-3.271-0.317c-1.063-0.231-2.159-0.524-3.035-1.188
							c0.914,0.603,2.01,0.818,3.071,0.977c1.07,0.155,2.154,0.212,3.236,0.192c1.082-0.023,2.164-0.08,3.242-0.192
							c1.079-0.111,2.151-0.274,3.222-0.445l-0.181,0.228c-0.141-2.091-1.093-4.062-2.157-5.885
							c-0.538-0.918-1.141-1.799-1.775-2.657C95.976,132.05,95.313,131.208,94.6,130.41z"/>
						<path style="fill:#2A6B2A;" d="M87.628,126.859c1.262,1.202,2.302,2.622,3.227,4.101c0.923,1.484,1.67,3.074,2.306,4.702
							l0.092,0.236l-0.251,0.048c-2.084,0.402-4.22,0.567-6.34,0.419c-2.108-0.17-4.239-0.587-6.118-1.568
							c1.953,0.802,4.055,1.126,6.138,1.219c1.045,0.039,2.091,0.027,3.134-0.056c1.043-0.086,2.075-0.253,3.105-0.433l-0.159,0.284
							c-0.593-1.621-1.346-3.178-2.183-4.689C89.719,129.626,88.765,128.173,87.628,126.859z"/>
						<path style="fill:#2A6B2A;" d="M74.546,119.009c1.463,1.273,2.802,2.691,4.015,4.214c1.207,1.525,2.271,3.193,2.942,5.057
							l0.088,0.245l-0.262,0.035c-1.907,0.253-3.823,0.424-5.742,0.523c-1.919,0.088-3.841,0.123-5.76,0.034
							c1.917-0.101,3.829-0.218,5.737-0.38c1.909-0.147,3.812-0.348,5.707-0.6l-0.174,0.28c-0.61-1.805-1.667-3.439-2.792-4.997
							C77.156,121.871,75.891,120.404,74.546,119.009z"/>
						<path style="fill:#2A6B2A;" d="M62.964,117.487c1.495,0.707,2.936,1.533,4.295,2.49c0.679,0.478,1.341,0.989,1.936,1.583
							c0.588,0.592,1.168,1.243,1.452,2.099l0.055,0.166l-0.158,0.079c-0.842,0.419-1.727,0.596-2.606,0.752
							c-0.881,0.147-1.765,0.259-2.651,0.342c-1.773,0.138-3.548,0.21-5.323,0.161c1.768-0.152,3.533-0.301,5.286-0.522
							c0.877-0.103,1.751-0.224,2.615-0.385c0.857-0.168,1.726-0.366,2.486-0.718l-0.103,0.244c-0.227-0.73-0.761-1.374-1.323-1.948
							c-0.572-0.575-1.2-1.104-1.847-1.607C65.77,119.23,64.384,118.33,62.964,117.487z"/>
					</g>
					<path style="fill:#5CAA2E;" d="M111.469,96.588c0,0-4.847-18.532-17.391-21.382c-12.544-2.851-16.536-7.698-24.519-10.264
						c-7.983-2.566-15.681,3.706-15.681,3.706s9.551,0.143,18.745,6.771S98.995,94.236,111.469,96.588z"/>
					<path style="fill:#347A34;" d="M111.469,96.588c0,0-5.906-12.053-18.45-14.904c-12.544-2.851-15.434-9.883-23.417-12.449
						c-7.983-2.566-15.724-0.587-15.724-0.587s9.551,0.143,18.745,6.771S98.995,94.236,111.469,96.588z"/>
					<path style="fill:#347A34;" d="M148.247,149.617c0,0,3.991-8.125,11.119-12.829c7.128-4.704,12.402-3.635,16.536-5.88
						c4.134-2.245,14.54-4.526,19.387-2.958c4.847,1.568,13.07,1.711,16.371,11.261c-3.257-1.996-8.531,0.57-14.233,2.566
						c-5.702,1.996-12.424-1.996-17.473,0c-5.049,1.996-9.611,6.842-15.028,7.128C159.508,149.189,148.247,149.617,148.247,149.617z
						"/>
					<path style="fill:#3AA33A;" d="M131.639,149.617c0,0-0.641-10.905,8.553-16.251c9.194-5.346,17.961-9.194,21.596-15.395
						c3.635-6.201,15.609-9.194,27.156-4.063c-8.553-0.428-19.458,7.698-31.005,17.961
						C146.393,142.133,131.639,149.617,131.639,149.617z"/>
					<path style="fill:#347A34;" d="M131.639,149.617c0,0-0.641-10.905,8.553-16.251c9.194-5.346,18.191-4.013,21.826-10.214
						c3.635-6.201,15.379-14.376,26.926-9.244c-8.553-0.428-19.458,7.698-31.005,17.961
						C146.393,142.133,131.639,149.617,131.639,149.617z"/>
					<path style="fill:#3AA33A;" d="M123.78,149.617c0,0,1.465-25.385,12.28-30.349c10.815-4.964,10.074-15.113,21.674-20.557
						c11.6-5.444,20.76-14.354,35.506-12.796c-13.191,4.383-16.834,10.535-22.352,17.89c-5.518,7.354-11.988,10.843-14.359,13.713
						c-2.37,2.869-9.628,12.473-14.116,13.982C137.926,133.01,126.336,143.356,123.78,149.617z"/>
					<path style="fill:#347A34;" d="M123.78,149.617c0,0,4.715-21.918,15.53-26.881c10.815-4.964,9.377-14.931,20.977-20.375
						c11.6-5.444,18.207-18.003,32.953-16.445c-13.191,4.383-16.834,10.535-22.352,17.89c-5.518,7.354-11.988,10.843-14.359,13.713
						c-2.37,2.869-9.628,12.473-14.116,13.982C137.926,133.01,126.336,143.356,123.78,149.617z"/>
					<path style="fill:#3AA33A;" d="M108.047,150.746c0,0-10.478-13.658-22.808-12.222c-12.33,1.436-9.693,9.291-21.668,6.058
						c-11.974-3.233-30.791,8.456-32.502,17.579c10.549-8.268,17.961-9.693,33.927-7.413
						C80.963,157.029,98.639,149.025,108.047,150.746z"/>
					<path style="fill:#347A34;" d="M108.047,150.746c0,0-9.991-7.495-22.32-6.059c-12.33,1.436-9.901,6.532-21.875,3.299
						c-11.974-3.233-31.071,5.052-32.782,14.176c10.549-8.268,17.961-9.693,33.927-7.413
						C80.963,157.029,98.639,149.025,108.047,150.746z"/>
					<path style="fill:#347A34;" d="M111.352,167.236c0,0,2.625-13-11.125-20.375c6.125-0.25,13.172,7.375,15.211,18.5
						C116.227,170.486,111.352,167.236,111.352,167.236z"/>
					<path style="fill:#3AA33A;" d="M108.047,119.966c0,0-9.693-12.259-5.987-30.506c3.706-18.246,4.847-17.676,9.693-25.944
						C116.6,55.249,120.022,44.985,130,44.13s8.553-6.842,18.246-2.281c-5.132-0.285-15.11,4.49-15.11,11.76
						s-2.138,12.402-4.918,15.609c-2.78,3.207-1.711,10.691-4.704,15.823c-2.994,5.132-7.912,19.458-11.119,23.628
						c-3.207,4.17-2.352,12.723-2.138,13.364C110.471,122.675,108.047,119.966,108.047,119.966z"/>
					<path style="fill:#5CAA2E;" d="M130.285,114.829c0,0-5.417-22.232-1.14-35.917c4.276-13.685,10.834-15.11,17.391-22.523
						c6.557-7.413,11.974-4.277,11.974-4.277s-3.706,5.132-4.276,19.387c-0.57,14.255-6.65,24.704-15.681,32.216
						C129.523,111.229,130.285,114.829,130.285,114.829z"/>
					<path style="fill:#3AA33A;" d="M106.622,125.398c0,0-6.842-23.393-20.527-28.81c-13.685-5.417-14.54-3.136-24.233-3.706
						s-21.383,3.991-26.799,8.268c14.255-4.277,29.08,2.532,38.489,7.966C82.959,114.549,106.622,125.398,106.622,125.398z"/>
					<path style="fill:#347A34;" d="M106.622,125.398c0,0-10.264-15.495-23.948-20.912c-13.685-5.417-12.503-9.805-22.196-10.375
						s-19.999,2.763-25.415,7.039c14.255-4.277,29.08,2.532,38.489,7.966C82.959,114.549,106.622,125.398,106.622,125.398z"/>
				</g>
			</g>
			<g>
				<path style="fill:#347A34;" d="M128.171,115.621c2.1-5.388,3.958-10.976,4.99-16.655c0.134-0.71,0.226-1.422,0.315-2.134
					c0.105-0.717,0.173-1.489,0.324-2.225c0.267-1.487,0.707-2.965,1.348-4.344c1.29-2.776,3.193-5.016,4.105-7.729
					c0.5-1.324,0.748-2.765,1.159-4.2c0.381-1.427,0.828-2.832,1.297-4.229c0.945-2.791,2.035-5.532,3.305-8.19
					c1.274-2.653,2.721-5.235,4.491-7.591c1.768-2.329,3.896-4.513,6.597-5.713c-2.665,1.278-4.707,3.502-6.396,5.861
					c-1.688,2.385-3.05,4.986-4.238,7.652c-1.184,2.671-2.188,5.42-3.045,8.211c-0.424,1.396-0.827,2.8-1.163,4.217
					c-0.185,0.707-0.317,1.415-0.481,2.131l-0.256,1.097l-0.324,1.082c-0.903,2.917-2.813,5.322-3.907,7.907
					c-0.559,1.299-0.926,2.667-1.136,4.072c-0.124,0.705-0.163,1.399-0.249,2.135c-0.071,0.745-0.147,1.491-0.264,2.226
					c-0.423,2.954-1.121,5.837-1.9,8.691c-0.796,2.854-1.685,5.657-2.709,8.458L128.171,115.621z"/>
				<path style="fill:#347A34;" d="M129.102,85.735c0.698,2.393,1.426,4.775,2.18,7.146c0.393,1.18,0.773,2.363,1.2,3.528
					c0.432,1.158,0.886,2.326,1.499,3.362l-0.359-0.07c1.02-0.731,2.047-1.452,3.087-2.153c1.044-0.695,2.084-1.398,3.163-2.041
					c2.142-1.306,4.338-2.537,6.646-3.521c-1.12,0.562-2.198,1.199-3.266,1.85c-1.073,0.641-2.13,1.31-3.174,1.997
					c-2.09,1.371-4.153,2.784-6.162,4.272l-0.223,0.166l-0.136-0.235c-0.644-1.119-1.078-2.293-1.503-3.471
					c-0.41-1.182-0.801-2.368-1.138-3.57C130.223,90.595,129.624,88.174,129.102,85.735z"/>
				<path style="fill:#347A34;" d="M134.102,74.319c0.194,2.485,0.519,4.956,0.916,7.409c0.422,2.448,0.915,4.887,1.658,7.25
					l-0.339-0.147c2.535-1.246,5.027-2.59,7.415-4.101c1.2-0.746,2.378-1.529,3.499-2.387c1.11-0.859,2.26-1.732,3.017-2.94
					c-0.685,1.255-1.789,2.215-2.858,3.141c-1.101,0.903-2.259,1.733-3.441,2.525c-1.184,0.788-2.406,1.518-3.644,2.218
					c-1.241,0.694-2.49,1.376-3.777,1.984l-0.26,0.123l-0.079-0.27c-0.709-2.407-1.232-4.861-1.553-7.34
					C134.318,79.307,134.132,76.813,134.102,74.319z"/>
				<path style="fill:#347A34;" d="M139.935,65.402c-0.118,2.155-0.092,4.312,0.043,6.454c0.171,2.135,0.436,4.28,1.141,6.285
					l-0.35-0.132c1.026-0.607,2.048-1.228,3.012-1.938c0.966-0.705,1.904-1.452,2.812-2.235c0.914-0.777,1.801-1.587,2.659-2.429
					c0.867-0.833,1.715-1.688,2.517-2.588c-1.471,1.912-3.126,3.683-4.911,5.316c-0.886,0.825-1.838,1.576-2.803,2.309
					c-0.972,0.725-1.987,1.397-3.047,1.993l-0.259,0.145l-0.091-0.278c-0.686-2.089-0.974-4.264-1.047-6.429
					C139.537,69.709,139.65,67.543,139.935,65.402z"/>
				<path style="fill:#347A34;" d="M145.269,58.902c-0.236,1.169-0.356,2.353-0.357,3.529c0.023,1.173,0.157,2.347,0.579,3.42
					l-0.261-0.149c0.715-0.14,1.42-0.403,2.112-0.691c0.692-0.292,1.364-0.641,2.026-1.007c1.339-0.71,2.629-1.518,3.923-2.33
					c-1.158,1-2.408,1.889-3.715,2.693c-0.66,0.391-1.337,0.758-2.043,1.076c-0.704,0.319-1.434,0.606-2.224,0.73l-0.197,0.031
					l-0.065-0.18c-0.418-1.163-0.565-2.396-0.484-3.601C144.633,61.217,144.862,60.027,145.269,58.902z"/>
			</g>
			<g>
				<path style="fill:#347A34;" d="M109.587,122.776c-0.292-0.292-0.404-0.47-0.567-0.7c-0.152-0.219-0.266-0.439-0.399-0.66
					c-0.224-0.445-0.438-0.891-0.597-1.346c-0.348-0.905-0.571-1.825-0.753-2.746c-0.33-1.843-0.47-3.691-0.448-5.523
					c0.016-3.668,0.53-7.274,1.233-10.818c0.729-3.529,1.509-7.072,2.891-10.468c0.68-1.692,1.517-3.306,2.268-4.905
					c0.764-1.598,1.36-3.242,1.799-4.951c0.73-3.482,1.738-6.995,2.968-10.36c1.227-3.38,2.642-6.694,4.309-9.88
					c1.669-3.181,3.575-6.252,5.869-9.023c2.291-2.751,5.018-5.233,8.283-6.744c-3.23,1.585-5.882,4.113-8.096,6.897
					c-2.216,2.803-4.039,5.894-5.625,9.089c-1.583,3.199-2.914,6.52-4.055,9.9c-1.147,3.394-2.059,6.8-2.704,10.349
					c-0.401,1.773-0.982,3.528-1.718,5.185c-0.725,1.664-1.493,3.257-2.103,4.909c-1.223,3.289-1.914,6.798-2.565,10.287
					c-0.617,3.489-1.04,7.022-0.98,10.523c0.014,1.75,0.188,3.485,0.523,5.16c0.183,0.831,0.402,1.653,0.714,2.414
					c0.144,0.39,0.328,0.746,0.512,1.098c0.104,0.159,0.199,0.337,0.306,0.483c0.093,0.137,0.247,0.321,0.274,0.345L109.587,122.776
					z"/>
				<path style="fill:#347A34;" d="M104.663,82.819c0.726,2.722,1.485,5.434,2.276,8.132c0.415,1.343,0.81,2.692,1.264,4.019
					c0.465,1.314,0.937,2.661,1.632,3.821l-0.36-0.062c1.825-1.368,3.626-2.766,5.43-4.16l2.695-2.106
					c0.901-0.699,1.799-1.403,2.668-2.144c-1.629,1.603-3.364,3.094-5.122,4.551c-1.758,1.458-3.564,2.857-5.368,4.256l-0.223,0.173
					l-0.137-0.235c-0.741-1.269-1.184-2.61-1.644-3.948c-0.438-1.344-0.844-2.696-1.202-4.06
					C105.842,88.331,105.212,85.583,104.663,82.819z"/>
				<path style="fill:#347A34;" d="M109.422,73.343c0.247,2.481,0.623,4.944,1.072,7.388c0.473,2.439,1.018,4.867,1.81,7.213
					l-0.342-0.14c2.508-1.299,4.971-2.695,7.327-4.256c1.184-0.771,2.345-1.579,3.448-2.46c1.091-0.882,2.223-1.779,2.955-3.003
					c-0.659,1.269-1.742,2.253-2.791,3.2c-1.082,0.926-2.222,1.78-3.387,2.596c-1.168,0.813-2.374,1.568-3.597,2.294
					c-1.226,0.72-2.461,1.428-3.734,2.063l-0.257,0.128l-0.085-0.268c-0.759-2.391-1.333-4.834-1.707-7.305
					C109.742,78.325,109.504,75.836,109.422,73.343z"/>
				<path style="fill:#347A34;" d="M115.067,64.306c-0.073,2.157-0.001,4.313,0.178,6.452c0.216,2.131,0.526,4.27,1.273,6.26
					l-0.353-0.125c1.013-0.628,2.021-1.27,2.97-2.001c0.951-0.726,1.873-1.492,2.765-2.294c0.897-0.796,1.767-1.625,2.607-2.484
					c0.849-0.851,1.679-1.724,2.462-2.64c-1.43,1.943-3.048,3.748-4.798,5.418c-0.869,0.843-1.805,1.614-2.754,2.367
					c-0.956,0.745-1.957,1.438-3.005,2.056l-0.256,0.151l-0.097-0.276c-0.73-2.074-1.063-4.242-1.181-6.405
					C114.758,68.62,114.826,66.451,115.067,64.306z"/>
				<path style="fill:#347A34;" d="M120.262,57.695c-0.212,1.174-0.307,2.36-0.283,3.535c0.048,1.172,0.206,2.343,0.651,3.407
					l-0.265-0.143c0.712-0.155,1.412-0.433,2.097-0.735c0.686-0.306,1.35-0.669,2.004-1.05c1.324-0.738,2.597-1.573,3.873-2.412
					c-1.136,1.024-2.367,1.939-3.657,2.771c-0.652,0.405-1.321,0.786-2.02,1.119c-0.697,0.334-1.421,0.636-2.208,0.777l-0.196,0.035
					l-0.069-0.179c-0.442-1.154-0.616-2.384-0.559-3.59C119.675,60.023,119.88,58.828,120.262,57.695z"/>
			</g>
			<path style="fill:#388C38;" d="M123.862,114.96c0,0,9.542-9.66,12.193-3.24c2.651,6.42-8.482,21.264-26.771,24.312
				s-14.578,12.855-14.578,12.855s-8.835-6.361-0.309-23.06C102.922,109.129,118.031,108.068,123.862,114.96z"/>
			<g>
				<path style="fill:#207A20;" d="M124.071,115.46c-0.236-0.05-0.72-0.029-1.101,0.063c-0.406,0.078-0.81,0.218-1.209,0.371
					c-0.796,0.326-1.561,0.759-2.299,1.238c-1.476,0.966-2.824,2.151-4.097,3.404c-0.653,0.613-1.24,1.286-1.872,1.931
					c-0.628,0.671-1.302,1.299-2.015,1.876c-1.43,1.15-3.006,2.091-4.62,2.917c-3.206,1.662-6.667,2.902-9.323,5.349
					c-1.323,1.202-2.379,2.699-3.096,4.345c-0.726,1.646-1.168,3.411-1.42,5.197c0.211-1.791,0.611-3.571,1.304-5.247
					c0.684-1.676,1.72-3.223,3.039-4.479c2.651-2.556,6.131-3.892,9.261-5.611c1.578-0.854,3.095-1.811,4.455-2.957
					c1.365-1.127,2.465-2.546,3.754-3.854c1.268-1.305,2.617-2.55,4.14-3.598c0.763-0.521,1.563-1,2.431-1.379
					c0.439-0.18,0.887-0.347,1.366-0.452c0.495-0.103,0.929-0.196,1.583-0.076L124.071,115.46z"/>
				<path style="fill:#207A20;" d="M93.352,130.456c0.68-0.369,1.423-0.606,2.164-0.827c0.748-0.203,1.511-0.348,2.277-0.466
					c1.536-0.224,3.093-0.259,4.641-0.208l0.348,0.011l-0.129,0.326c-0.592,1.494-1.137,3.006-1.662,4.526
					c-0.524,1.52-1.022,3.05-1.473,4.6c0.243-1.599,0.653-3.166,1.101-4.719c0.463-1.549,0.997-3.076,1.573-4.586l0.219,0.337
					c-0.762-0.036-1.526-0.058-2.289-0.042c-0.763,0.016-1.524,0.066-2.285,0.129C96.322,129.69,94.801,129.934,93.352,130.456z"/>
				<path style="fill:#207A20;" d="M98.414,122.486c2.322-0.291,4.662-0.448,7.008-0.451c1.173-0.004,2.348,0.056,3.521,0.172
					c1.169,0.129,2.354,0.277,3.485,0.726l0.165,0.066l-0.012,0.173c-0.067,0.995-0.159,1.988-0.303,2.975
					c-0.153,0.985-0.33,1.97-0.611,2.929c-0.27,0.96-0.578,1.913-0.997,2.819c-0.429,0.898-0.912,1.784-1.569,2.529
					c0.598-0.792,1.007-1.702,1.362-2.616c0.354-0.918,0.633-1.864,0.854-2.821c0.227-0.956,0.378-1.929,0.522-2.901
					c0.128-0.975,0.205-1.956,0.257-2.939l0.154,0.238c-1.059-0.389-2.211-0.581-3.358-0.715c-1.151-0.134-2.313-0.195-3.477-0.229
					C103.088,122.366,100.751,122.397,98.414,122.486z"/>
				<path style="fill:#207A20;" d="M107.697,113.986c0.987-0.115,1.989,0.004,2.977,0.101c0.99,0.118,1.971,0.305,2.942,0.532
					c1.95,0.436,3.834,1.136,5.654,1.96l0.076,0.034l0.037,0.076c0.52,1.066,0.977,2.167,1.284,3.314
					c0.339,1.137,0.534,2.315,0.634,3.494c0.168,2.359-0.096,4.767-0.949,6.958c0.35-1.12,0.52-2.283,0.601-3.443
					c0.09-1.159,0.084-2.327-0.058-3.478c-0.134-1.149-0.326-2.297-0.677-3.401c-0.31-1.117-0.789-2.174-1.268-3.226l0.113,0.11
					c-1.775-0.853-3.638-1.512-5.536-2.049c-0.949-0.271-1.915-0.479-2.887-0.661C109.671,114.138,108.685,113.945,107.697,113.986z
					"/>
				<path style="fill:#207A20;" d="M122.661,114.695c1.089,0.314,2.097,0.772,3.061,1.327c0.957,0.561,1.847,1.246,2.595,2.068
					c0.75,0.822,1.293,1.823,1.605,2.878c0.355,1.059,0.282,2.187,0.181,3.267c0.061-1.086,0.089-2.204-0.3-3.231
					c-0.346-1.024-0.91-1.974-1.668-2.745c-0.757-0.77-1.645-1.401-2.595-1.911c-0.949-0.502-1.969-0.915-2.995-1.169
					L122.661,114.695z"/>
			</g>
			<g>
				<path style="fill:#2A6B2A;" d="M147.727,149.617c2.126-1.766,4.282-3.51,6.575-5.071c1.144-0.783,2.309-1.542,3.532-2.219
					c1.227-0.691,2.536-1.193,3.847-1.661c1.317-0.462,2.674-0.822,4.035-1.108c1.362-0.29,2.718-0.521,4.03-0.883
					c1.314-0.355,2.588-0.835,3.831-1.4c1.277-0.596,2.632-1.011,3.977-1.362c5.409-1.341,10.973-1.905,16.522-1.826
					c2.773,0.056,5.552,0.262,8.279,0.792c2.717,0.538,5.41,1.343,7.832,2.69c-2.47-1.255-5.171-1.953-7.885-2.387
					c-2.723-0.411-5.476-0.601-8.23-0.585c-2.753,0.009-5.503,0.207-8.237,0.52c-2.731,0.321-5.452,0.784-8.103,1.48
					c-1.325,0.357-2.623,0.764-3.848,1.347c-1.264,0.599-2.592,1.083-3.95,1.435c-1.358,0.361-2.733,0.582-4.076,0.857
					c-1.346,0.271-2.669,0.609-3.965,1.051c-1.294,0.451-2.577,0.937-3.788,1.553c-1.217,0.622-2.397,1.335-3.559,2.074
					C152.234,146.413,149.941,147.961,147.727,149.617z"/>
				<path style="fill:#2A6B2A;" d="M165.727,134.338c-0.901,0.58-1.764,1.213-2.6,1.878c-0.84,0.658-1.657,1.346-2.42,2.087
					c-1.512,1.473-2.956,3.118-3.65,5.096l-0.114-0.268c0.987,0.451,1.976,0.895,2.986,1.29c1.009,0.396,2.037,0.739,3.073,1.051
					c1.038,0.308,2.097,0.542,3.17,0.679c1.065,0.13,2.179,0.215,3.221-0.122c-1.021,0.406-2.155,0.396-3.242,0.335
					c-1.093-0.095-2.176-0.295-3.237-0.567c-1.065-0.264-2.101-0.624-3.127-1.004c-1.024-0.387-2.029-0.819-3.027-1.266
					l-0.182-0.081l0.068-0.187c0.376-1.039,0.951-1.981,1.617-2.836c0.666-0.857,1.41-1.646,2.217-2.361
					C162.083,136.617,163.855,135.38,165.727,134.338z"/>
				<path style="fill:#2A6B2A;" d="M173.394,132.777c-1.447,0.963-2.755,2.109-3.982,3.321c-1.209,1.233-2.351,2.532-3.355,3.936
					l-0.077-0.316c0.944,0.449,1.895,0.885,2.877,1.246c0.982,0.359,1.988,0.65,3.005,0.891c2.033,0.466,4.145,0.715,6.241,0.464
					c-2.073,0.443-4.238,0.277-6.315-0.122c-2.083-0.423-4.097-1.153-5.998-2.096l-0.229-0.114l0.152-0.203
					c1.048-1.399,2.192-2.732,3.478-3.916C170.475,134.689,171.857,133.599,173.394,132.777z"/>
				<path style="fill:#2A6B2A;" d="M188.096,128.704c-1.669,0.985-3.279,2.062-4.8,3.246c-1.501,1.2-2.955,2.493-4.025,4.07
					l-0.093-0.316c1.759,0.749,3.539,1.451,5.34,2.102c1.795,0.666,3.607,1.288,5.427,1.898c-1.873-0.426-3.716-0.973-5.542-1.57
					c-1.823-0.607-3.624-1.284-5.394-2.037l-0.244-0.104l0.15-0.213c1.145-1.617,2.615-2.941,4.185-4.088
					C184.678,130.55,186.346,129.541,188.096,128.704z"/>
				<path style="fill:#2A6B2A;" d="M199.665,130.329c-1.594,0.433-3.169,0.93-4.694,1.54c-0.759,0.312-1.504,0.654-2.209,1.055
					c-0.695,0.404-1.382,0.882-1.795,1.525l-0.034-0.263c0.638,0.542,1.422,0.964,2.204,1.355c0.789,0.386,1.6,0.735,2.417,1.069
					c1.63,0.681,3.291,1.296,4.954,1.914c-1.724-0.426-3.415-0.97-5.087-1.576c-0.831-0.316-1.653-0.66-2.463-1.037
					c-0.806-0.385-1.612-0.792-2.311-1.421l-0.131-0.118l0.098-0.145c0.503-0.749,1.235-1.222,1.96-1.635
					c0.732-0.413,1.507-0.729,2.289-1.009C196.426,131.023,198.035,130.611,199.665,130.329z"/>
			</g>
		</g>
		<g>
			<polygon style="fill:#D18133;" points="80.894,170.736 89.96,232.486 144.627,232.486 152.894,170.736 			"/>
			<path style="fill:#C46C23;" d="M151.514,181.038l1.379-10.302h-72l9.067,61.75h12.026
				C100.852,202.883,117.167,173.212,151.514,181.038z"/>
			<path style="fill:#D18133;" d="M151.56,175.486H82.227c-3.85,0-7-3.15-7-7l0,0c0-3.85,3.15-7,7-7h69.333c3.85,0,7,3.15,7,7l0,0
				C158.56,172.336,155.41,175.486,151.56,175.486z"/>
		</g>
		<g>
			<path style="fill:#3AA33A;" d="M126.864,155.747c0,0,2.281-7.698,9.551-3.991c7.27,3.706,8.696,21.24-3.706,34.07
				c-0.57-6.557-1.568-9.836-7.128-16.108C120.022,163.444,121.732,156.887,126.864,155.747z"/>
			<g>
				<path style="fill:#207A20;" d="M126.984,155.328c1.372,0.344,2.619,0.942,3.742,1.763c1.108,0.827,2.043,1.925,2.59,3.21
					c0.552,1.282,0.715,2.698,0.6,4.061c-0.137,1.326-0.078,2.644,0.172,3.951c0.472,2.607,1.715,5.096,1.824,7.833
					c0.065,1.357-0.21,2.712-0.717,3.959c-0.519,1.245-1.231,2.396-2.04,3.465c0.784-1.088,1.468-2.253,1.953-3.499
					c0.474-1.249,0.712-2.588,0.617-3.916c-0.165-2.677-1.454-5.111-2.004-7.769c-0.286-1.324-0.382-2.71-0.27-4.058
					c0.088-1.307-0.092-2.633-0.623-3.813c-1.059-2.386-3.5-3.943-5.977-4.535L126.984,155.328z"/>
				<path style="fill:#207A20;" d="M138.693,177.315c-0.391-0.877-0.961-1.651-1.572-2.376c-0.631-0.71-1.298-1.387-2.038-1.985
					l0.25-0.057c-0.944,2.074-1.986,4.117-3.311,5.978c1.073-2.01,2.079-4.042,3.017-6.11l0.089-0.196l0.161,0.139
					c0.732,0.631,1.431,1.309,2.018,2.081C137.891,175.555,138.416,176.391,138.693,177.315z"/>
				<path style="fill:#207A20;" d="M140.272,171.012c-1.012-1.042-2.059-2.048-3.15-2.996c-0.55-0.469-1.103-0.933-1.691-1.346
					c-0.585-0.411-1.198-0.802-1.857-1.027l0.178-0.05c-0.45,0.53-0.887,1.069-1.302,1.626c-0.408,0.562-0.802,1.134-1.167,1.724
					c-0.367,0.589-0.704,1.197-0.991,1.83c-0.292,0.629-0.555,1.28-0.676,1.969c0.068-0.697,0.283-1.375,0.529-2.032
					c0.257-0.655,0.576-1.283,0.921-1.896c0.693-1.225,1.535-2.358,2.434-3.436l0.072-0.087l0.106,0.037
					c0.719,0.25,1.335,0.667,1.929,1.094c0.59,0.436,1.158,0.897,1.686,1.401C138.364,168.814,139.352,169.886,140.272,171.012z"/>
				<path style="fill:#207A20;" d="M139.609,163.32c-0.43-0.445-0.975-0.766-1.499-1.09c-0.534-0.314-1.073-0.618-1.635-0.877
					c-1.12-0.522-2.282-0.95-3.478-1.251l0.101-0.008c-1.492,0.686-2.911,1.552-4.125,2.669c-0.622,0.54-1.19,1.142-1.712,1.782
					c-0.523,0.638-1.016,1.31-1.406,2.045c0.68-1.522,1.718-2.876,2.927-4.034c0.616-0.568,1.269-1.101,1.976-1.554
					c0.692-0.477,1.448-0.853,2.213-1.197l0.049-0.022l0.052,0.014c1.211,0.327,2.396,0.762,3.502,1.352
					c0.555,0.29,1.096,0.605,1.608,0.965C138.688,162.479,139.21,162.842,139.609,163.32z"/>
				<path style="fill:#207A20;" d="M139.31,156.22c-1.309-1.181-3.104-1.686-4.822-1.681c-1.74-0.011-3.438,0.527-4.99,1.287
					c-0.784,0.377-1.514,0.837-2.149,1.426c-0.658,0.558-1.238,1.21-1.708,1.935c-0.953,1.436-1.564,3.128-1.664,4.881
					c-0.057-1.759,0.469-3.537,1.421-5.039c0.474-0.754,1.063-1.437,1.734-2.023c0.653-0.613,1.432-1.073,2.231-1.454
					c1.589-0.771,3.343-1.297,5.129-1.228C136.257,154.35,138.06,154.98,139.31,156.22z"/>
			</g>
		</g>
	</g>
	<g>
		<g>
			<g>
				<path style="fill:#5CAA2E;" d="M399.8,129.664c0,0,5.855-22.492,0.169-41.46c-5.686-18.967-20.307-26.35-30.742-27.855
					c12.745,11.879,20.177,29.611,22.088,40.529C393.225,111.797,395.552,122.286,399.8,129.664z"/>
				<path style="fill:#144714;" d="M401.036,161.936c-0.013-7.951-0.335-15.919-0.857-23.863
					c-0.547-7.944-1.308-15.877-2.448-23.759c-0.556-3.943-1.229-7.869-2.015-11.772c-0.776-3.905-1.697-7.783-2.811-11.604
					c-1.117-3.819-2.392-7.602-4.038-11.23c-1.655-3.613-3.639-7.12-6.304-10.096c2.692,2.951,4.711,6.447,6.401,10.051
					c1.681,3.62,2.993,7.398,4.146,11.214c1.151,3.819,2.109,7.696,2.92,11.6c0.823,3.903,1.531,7.83,2.124,11.774
					c1.213,7.885,2.046,15.824,2.665,23.776c0.595,7.956,0.989,15.921,1.073,23.911L401.036,161.936z"/>
			</g>
			<g>
				<path style="fill:#1C5E1C;" d="M410.497,156.297c0,0-2.499-11.811,3.168-22.624c5.667-10.813,22.167-23.313,34.667-26.48
					c-9.667,9.5-17.833,18.57-22,30.618C422.165,149.86,412.495,155.735,410.497,156.297z"/>
				<path style="fill:#144714;" d="M406.005,170.911c1.116-5.644,2.776-11.108,4.755-16.467c1.997-5.349,4.392-10.545,7.144-15.54
					c0.714-1.234,1.35-2.514,2.128-3.71l2.284-3.616c0.77-1.199,1.646-2.327,2.464-3.494l1.247-1.736
					c0.431-0.567,0.899-1.105,1.347-1.659l2.716-3.299l2.944-3.097l1.476-1.542l1.588-1.429l3.173-2.855l-3.131,2.901l-1.564,1.45
					l-1.452,1.562l-2.892,3.133l-2.661,3.331c-0.438,0.559-0.897,1.102-1.318,1.674l-1.218,1.749
					c-0.798,1.175-1.654,2.311-2.404,3.517l-2.222,3.635c-0.757,1.202-1.372,2.486-2.064,3.724
					c-2.666,5.012-4.973,10.214-6.879,15.559c-1.887,5.342-3.461,10.832-4.473,16.371L406.005,170.911z"/>
			</g>
			<g>
				<path style="fill:#3AA33A;" d="M407.942,134.118c0,0-3.249-7.277,0-23.921c3.249-16.644,19.999-36.592,45.749-38.243
					c-15.5,8.099-25.75,20.998-30.5,33.424C418.441,117.803,414.443,123.934,407.942,134.118z"/>
				<path style="fill:#144714;" d="M402.525,164.943c0.676-7.705,1.851-15.324,3.345-22.889c1.513-7.558,3.391-15.048,5.796-22.372
					c1.184-3.668,2.542-7.279,4.036-10.831c1.482-3.557,3.164-7.033,5.049-10.393c3.722-6.732,8.438-13,14.377-17.916
					c-5.886,4.98-10.52,11.283-14.159,18.037c-1.844,3.371-3.482,6.853-4.922,10.416c-1.451,3.557-2.765,7.171-3.906,10.84
					c-2.319,7.327-4.11,14.814-5.536,22.362c-1.407,7.548-2.497,15.178-3.084,22.814L402.525,164.943z"/>
			</g>
			<g>
				<path style="fill:#1C5E1C;" d="M397.847,156.828c0,0,4.276-9.038-2.439-20.978c-6.715-11.94-26.711-19.379-39.132-11.697
					c11.129,2.637,24.35,10.046,27.268,17.776C386.462,149.66,394.837,156.85,397.847,156.828z"/>
				<path style="fill:#144714;" d="M400.019,172.545c-0.249-5.611-1.258-11.251-2.844-16.675
					c-1.597-5.428-3.912-10.665-7.073-15.365c-1.565-2.361-3.421-4.52-5.453-6.489c-0.997-1.009-2.116-1.88-3.212-2.778
					c-1.16-0.813-2.299-1.661-3.545-2.342c-1.197-0.767-2.51-1.317-3.781-1.948c-1.328-0.498-2.626-1.089-4.004-1.446
					c-2.704-0.891-5.533-1.309-8.353-1.664c2.824,0.313,5.663,0.69,8.389,1.544c1.388,0.339,2.699,0.913,4.042,1.394
					c1.285,0.614,2.616,1.15,3.832,1.904c1.265,0.669,2.425,1.505,3.608,2.309c1.118,0.889,2.261,1.753,3.282,2.756
					c2.081,1.957,3.99,4.114,5.606,6.477c3.266,4.705,5.684,9.968,7.379,15.43c1.684,5.474,2.786,11.11,3.127,16.868
					L400.019,172.545z"/>
			</g>
			<g>
				<path style="fill:#3AA33A;" d="M418.397,151.281c0,0-0.745-9.971,9.811-18.703c10.555-8.732,31.889-8.493,40.722,3.137
					c-11.333-1.536-26.333,0.63-31.833,6.797C431.596,148.68,421.198,152.383,418.397,151.281z"/>
				<path style="fill:#144714;" d="M409.801,164.787c2.386-5.252,5.438-10.116,8.976-14.62c3.544-4.489,7.691-8.533,12.428-11.751
					c2.358-1.624,4.914-2.952,7.559-4.032c1.313-0.57,2.691-0.965,4.053-1.394c1.392-0.325,2.775-0.689,4.196-0.859
					c1.405-0.267,2.84-0.289,4.26-0.401c1.426,0.033,2.855-0.032,4.273,0.151c2.85,0.182,5.635,0.85,8.384,1.572
					c-2.76-0.682-5.549-1.307-8.393-1.447c-1.414-0.161-2.838-0.075-4.256-0.088c-1.412,0.132-2.836,0.175-4.228,0.46
					c-1.408,0.189-2.775,0.571-4.15,0.913c-1.345,0.445-2.703,0.855-3.995,1.44c-2.603,1.108-5.111,2.456-7.419,4.097
					c-4.638,3.251-8.679,7.308-12.119,11.799c-3.428,4.492-6.395,9.393-8.643,14.541L409.801,164.787z"/>
			</g>
			<g>
				<path style="fill:#1C5E1C;" d="M397.553,132.286c0,0-7.201-2.429-13.201-14.739c-6-12.311-14.414-32.445-35.25-34.98
					c20.25-2.581,34.762,5.866,42.75,17.695S399.254,126.836,397.553,132.286z"/>
				<path style="fill:#144714;" d="M402.519,170.417c0.052-7.635-0.555-15.315-1.61-22.9c-1.083-7.586-2.661-15.117-5.011-22.417
					c-1.155-3.655-2.52-7.245-4.128-10.725c-1.597-3.482-3.402-6.881-5.555-10.055c-2.147-3.169-4.511-6.219-7.282-8.879
					c-2.76-2.665-5.823-5.013-9.143-6.953c3.34,1.904,6.434,4.221,9.23,6.864c2.807,2.637,5.212,5.67,7.403,8.829
					c2.197,3.163,4.046,6.557,5.688,10.036c1.652,3.478,3.063,7.069,4.263,10.728c2.44,7.307,4.107,14.854,5.278,22.463
					c1.142,7.619,1.836,15.295,1.867,23.028L402.519,170.417z"/>
			</g>
			<g>
				<path style="fill:#1C5E1C;" d="M403.853,126.704c0,0-9.501-25.437-5.168-48.161c4.333-22.724,20.439-33.058,32.386-36.058
					c-13.386,15.333-19.897,36.831-20.808,49.749C409.352,105.152,407.906,117.621,403.853,126.704z"/>
				<path style="fill:#144714;" d="M405.294,164.462c-0.86-9.294-1.358-18.598-1.62-27.916c-0.234-9.316-0.218-18.641,0.245-27.95
					c0.216-4.655,0.568-9.303,1.056-13.937c0.475-4.635,1.123-9.255,2.003-13.831c0.883-4.573,1.954-9.121,3.473-13.529
					c1.532-4.391,3.459-8.696,6.234-12.449c-2.741,3.778-4.626,8.092-6.116,12.489c-1.477,4.414-2.506,8.963-3.346,13.535
					c-0.837,4.575-1.442,9.192-1.875,13.823c-0.446,4.63-0.756,9.273-0.93,13.922c-0.38,9.296-0.313,18.607,0.005,27.905
					c0.345,9.295,0.926,18.592,1.865,27.834L405.294,164.462z"/>
			</g>
		</g>
		<g>
			<polygon style="fill:#D18133;" points="369.791,170.736 378.858,232.486 433.524,232.486 441.791,170.736 			"/>
			<path style="fill:#C46C23;" d="M440.412,181.038l1.379-10.302h-72l9.067,61.75h12.026
				C389.749,202.883,406.064,173.212,440.412,181.038z"/>
			<path style="fill:#D18133;" d="M440.458,175.486h-69.333c-3.85,0-7-3.15-7-7l0,0c0-3.85,3.15-7,7-7h69.333c3.85,0,7,3.15,7,7l0,0
				C447.458,172.336,444.308,175.486,440.458,175.486z"/>
		</g>
	</g>
	<g>
		<g>
			<g>
				<path style="fill:#388C38;" d="M138.322,327.485c0,0,6.86,10.534-5.178,16.034c-12.038,5.5-33.538-5.766-46.871,9.367
					c3.333-21.034,11.211-29.924,23.333-34.367C124.273,313.144,142.825,318.303,138.322,327.485z"/>
				<path style="fill:#8CC64E;" d="M128.273,326.019c-8.582,1.907-12.606,11.084-12.096,18.869c1.699,0.103,3.372,0.203,4.996,0.254
					C120.452,338.284,122.519,329.855,128.273,326.019z"/>
				<path style="fill:#8CC64E;" d="M108.735,328.355c-7.498,2.812-8.43,9.801-10.107,17.17c1.477-0.354,2.981-0.591,4.499-0.741
					C102.521,338.422,104.974,333.056,108.735,328.355z"/>
				<path style="fill:#8CC64E;" d="M116.273,326.019c-1.556-3.891-4.325-5.361-7.36-7.235c-2.162,0.835-4.185,1.821-6.068,3.001
					C107.352,321.814,112.059,323.912,116.273,326.019z"/>
				<path style="fill:#506815;" d="M164.291,380.055c0.797-4.743,0.745-9.786,0.203-14.66c-0.544-4.901-1.718-9.735-3.477-14.351
					c-1.757-4.597-4.147-9.038-7.048-12.954c-1.522-1.913-3.361-3.563-5.339-5.012c-1.98-1.454-4.144-2.665-6.414-3.633
					c-4.525-1.981-9.434-3.078-14.38-3.435c-4.948-0.35-9.967,0.048-14.791,1.261c-4.821,1.2-9.461,3.252-13.466,6.226
					c-1.982,1.507-3.818,3.216-5.4,5.149c-1.554,1.955-2.861,4.099-3.907,6.373c1.008-2.291,2.281-4.461,3.809-6.451
					c1.557-1.968,3.374-3.718,5.347-5.27c3.985-3.064,8.636-5.216,13.491-6.511c4.858-1.309,9.933-1.798,14.964-1.526
					c5.028,0.279,10.047,1.309,14.725,3.264c2.346,0.956,4.598,2.165,6.675,3.637c2.075,1.467,4.022,3.155,5.653,5.136
					c3.116,4.063,5.578,8.488,7.478,13.199c1.883,4.705,3.172,9.65,3.817,14.683c0.635,5.046,0.799,10.107,0.024,15.256
					L164.291,380.055z"/>
			</g>
			<g>
				<path style="fill:#347A34;" d="M175.583,333.111c0,0-3.129,12.175,10.035,13.535c13.165,1.36,29.93-16.192,47.404-6.12
					c-9.887-18.862-20.195-24.765-33.102-25.096C184.305,315.03,168.378,325.853,175.583,333.111z"/>
				<path style="fill:#5CAA2E;" d="M215.273,330.019c2.795-2.794,5.59-3.147,8.726-3.107c-1.173-1.338-2.359-2.54-3.562-3.611
					C217.649,324.552,215.273,326.572,215.273,330.019z"/>
				<path style="fill:#5CAA2E;" d="M181.273,331.019c1.672,5.851,4.733,10.309,5.695,15.702c1.093,0.011,2.212-0.105,3.35-0.299
					C190.845,339.793,184.185,335.873,181.273,331.019z"/>
				<path style="fill:#5CAA2E;" d="M195.445,329.018c1.455-7.491,9.374-11.201,16.569-11.133c-3.476-1.479-7.127-2.208-11.012-2.407
					c-5.726,1.907-9.981,7.115-11.544,13.775c3.448,4.338,6.849,9.418,7.641,15.244c1.935-0.711,3.917-1.526,5.94-2.347
					C202.213,336.919,199.209,332.384,195.445,329.018z"/>
				<path style="fill:#5CAA2E;" d="M199.273,328.602c6.084,1.521,8.692,6.352,9.155,11.458c1.733-0.621,3.488-1.186,5.266-1.633
					C211.396,332.578,208.919,326.686,199.273,328.602z"/>
				<path style="fill:#506815;" d="M152.607,378.052c-0.011-4.806,0.472-9.5,1.337-14.173c0.88-4.656,2.191-9.255,4.155-13.597
					c1.955-4.33,4.625-8.424,8.204-11.633c1.776-1.61,3.789-2.955,5.884-4.068c2.093-1.13,4.289-2.041,6.524-2.812
					c4.469-1.553,9.109-2.526,13.781-3.097c4.674-0.564,9.397-0.712,14.089-0.405c4.687,0.313,9.372,1.063,13.823,2.593
					c2.218,0.77,4.38,1.745,6.329,3.062c1.939,1.312,3.672,3.004,4.748,5.097c-1.114-2.073-2.868-3.723-4.817-4.993
					c-1.959-1.274-4.123-2.204-6.34-2.93c-4.447-1.44-9.113-2.103-13.771-2.331c-4.664-0.222-9.347,0.009-13.964,0.65
					c-4.615,0.647-9.183,1.692-13.541,3.295c-4.345,1.591-8.555,3.736-11.899,6.86c-3.363,3.122-5.86,7.095-7.678,11.32
					c-1.827,4.235-3.026,8.736-3.804,13.296c-0.764,4.553-1.152,9.233-1.061,13.799L152.607,378.052z"/>
			</g>
			<g>
				<path style="fill:#5CAA2E;" d="M152.279,309.6c0,0,1.316,8.919-12.529,8.06c-20.572-1.276-14.346-28.391-18.912-41.641
					c-4.566-13.25-16.316-15.75-16.316-15.75s35.896,3.75,49.073,21.5S162.286,312.264,152.279,309.6z"/>
				<path style="fill:#8CC64E;" d="M141.307,271.456c-1.214-0.692-2.457-1.344-3.722-1.957c-1.237,2.103-2.292,6.876,0.057,12.825
					C136.529,275.78,139.526,272.686,141.307,271.456z"/>
				<path style="fill:#8CC64E;" d="M123.437,294.992c0.203,2.044,0.454,4.07,0.802,6.024c3.733-1.461,13.262-3.974,25.51,1.836
					c0.818-10.253,4.327-16.371,5.708-18.422c-0.58-0.875-1.192-1.759-1.861-2.661c-0.694-0.935-1.464-1.822-2.275-2.681
					c-2.209,2.354-6.959,8.342-5.798,15.306C138.494,292.191,127.858,292.366,123.437,294.992z"/>
				<path style="fill:#506815;" d="M155.293,380.045c0.987-5.042,1.601-10.24,2.036-15.408c0.426-5.18,0.601-10.382,0.548-15.582
					c-0.104-10.399-1.255-20.798-3.634-30.928c-1.241-5.052-2.812-10.021-4.741-14.854c-1.925-4.838-4.355-9.462-7.099-13.884
					l-2.147-3.264l-2.353-3.119c-0.757-1.063-1.636-2.026-2.492-3.009c-0.876-0.964-1.668-2.009-2.626-2.895l-2.777-2.756
					c-0.944-0.899-1.969-1.71-2.95-2.57l-1.488-1.273c-0.511-0.405-1.048-0.777-1.571-1.167l-3.159-2.317l3.196,2.267
					c0.53,0.382,1.073,0.747,1.592,1.143l1.509,1.25c0.996,0.845,2.037,1.642,2.997,2.528l2.829,2.719
					c0.976,0.875,1.786,1.91,2.682,2.863c0.875,0.973,1.774,1.927,2.552,2.982l2.415,3.098l2.211,3.248
					c2.832,4.404,5.354,9.024,7.372,13.867c2.022,4.839,3.687,9.824,5.019,14.9c2.562,10.177,3.892,20.651,4.164,31.141
					c0.137,5.246,0.044,10.499-0.303,15.739c-0.359,5.246-0.885,10.451-1.822,15.681L155.293,380.045z"/>
			</g>
			<g>
				<path style="fill:#388C38;" d="M168.696,322.401c0,0-1.316,8.919,12.529,8.06c20.572-1.276,14.346-28.391,18.912-41.641
					c4.566-13.25,16.316-15.75,16.316-15.75s-35.896,3.75-49.073,21.5C154.202,312.32,158.689,325.065,168.696,322.401z"/>
				<path style="fill:#8CC64E;" d="M198.84,294.475c0.309-2.055,0.714-3.969,1.296-5.656c0.073-0.212,0.153-0.414,0.23-0.62
					c-4.008-0.931-8.762-0.465-13.061,1.684c0.827-4.961,4.011-9.083,7.572-12.111c-3.776,1.201-7.697,2.684-11.452,4.502
					c-2.861,4.571-2.208,11.121-3.804,16.709C185.901,294.497,191.837,293.078,198.84,294.475z"/>
				<path style="fill:#8CC64E;" d="M169.273,318.019c8.308,0.923,15.753,3.573,22.357,7.905c2.011-2.185,3.325-5.011,4.216-8.188
					C186.8,316.573,178.457,314.345,169.273,318.019z"/>
				<path style="fill:#8CC64E;" d="M174.273,307.019c8.114,0,16.223-0.792,22.871,4.177c0.213-1.581,0.382-3.189,0.528-4.802
					C190.185,303.351,181.13,301.876,174.273,307.019z"/>
				<path style="fill:#8CC64E;" d="M174.06,287.949c-2.559,1.957-4.845,4.149-6.681,6.621c-0.121,0.163-0.23,0.323-0.348,0.485
					c0.127,5.59,2.205,10.929,6.241,14.965C173.273,302.662,173.283,295.306,174.06,287.949z"/>
				<path style="fill:#506815;" d="M158.274,383.062c-0.113-5.137,0.08-10.206,0.417-15.291c0.345-5.078,0.872-10.142,1.596-15.178
					c0.724-5.036,1.644-10.043,2.781-15.003c1.163-4.953,2.562-9.852,4.228-14.659c1.642-4.816,3.664-9.503,5.996-14.023
					c1.129-2.281,2.468-4.449,3.776-6.629l2.14-3.159c0.699-1.063,1.539-2.025,2.301-3.042c3.184-3.956,6.731-7.655,10.81-10.696
					c4.073-3.039,8.545-5.505,13.264-7.363c-4.689,1.935-9.108,4.47-13.111,7.561c-4.009,3.093-7.473,6.828-10.568,10.805
					c-0.74,1.023-1.557,1.989-2.233,3.056l-2.072,3.169c-1.262,2.186-2.554,4.355-3.637,6.638
					c-2.238,4.521-4.167,9.201-5.718,14.005c-1.574,4.796-2.882,9.677-3.955,14.61c-1.046,4.939-1.878,9.923-2.514,14.931
					c-1.244,10.006-1.829,20.153-1.501,30.181L158.274,383.062z"/>
			</g>
			<g>
				<path style="fill:#1C5E1C;" d="M145.355,364.462c0,0,4.335,13.307-12.499,11.557c-16.833-1.75-35.519-13.505-51.269-3.005
					c21.25-22.5,31.763-28.604,50.686-26.245C149.773,348.951,148.312,361.405,145.355,364.462z"/>
				<path style="fill:#388C38;" d="M122.944,346.361c-4.095,0.216-7.885,1.037-11.654,2.581c6.586-0.398,14.861,0.977,19.232,6.078
					C130.523,350.303,126.603,348.256,122.944,346.361z"/>
				<path style="fill:#388C38;" d="M113.27,353.832c-3.426,0-7.849-0.469-11.275,0.369c-5.966,4.243-12.428,10.364-20.409,18.813
					c5.386-3.591,11.116-4.574,16.997-4.248C100.208,361.527,107.568,357.091,113.27,353.832z"/>
				<path style="fill:#388C38;" d="M104.381,369.457c2.852,0.499,5.724,1.199,8.596,1.965c3.141-9.047,13.048-12.653,21.296-15.403
					C122.612,353.52,109.571,359.351,104.381,369.457z"/>
				<path style="fill:#506815;" d="M155.144,383.292c-1.396-4.672-3.615-9.258-6.368-13.38c-2.778-4.118-6.191-7.865-10.314-10.677
					c-2.055-1.407-4.266-2.587-6.585-3.521c-2.335-0.895-4.772-1.506-7.251-1.907c-4.979-0.668-10.086-0.325-15.021,0.762
					c4.896-1.248,10.011-1.769,15.084-1.258c2.526,0.322,5.029,0.862,7.449,1.7c2.403,0.876,4.714,2.012,6.876,3.391
					c4.34,2.756,7.988,6.503,10.992,10.653c2.988,4.191,5.395,8.726,7.061,13.691L155.144,383.292z"/>
			</g>
		</g>
		<g>
			<polygon style="fill:#D18133;" points="127.314,385.269 136.381,447.019 191.048,447.019 199.314,385.269 			"/>
			<path style="fill:#C46C23;" d="M197.935,395.571l1.379-10.302h-72l9.067,61.75h12.026
				C147.273,417.416,163.588,387.746,197.935,395.571z"/>
			<path style="fill:#D18133;" d="M197.981,390.019h-69.333c-3.85,0-7-3.15-7-7l0,0c0-3.85,3.15-7,7-7h69.333c3.85,0,7,3.15,7,7l0,0
				C204.981,386.869,201.831,390.019,197.981,390.019z"/>
		</g>
		<g>
			<g>
				<g>
					<path style="fill:#3AA33A;" d="M334.333,341.406c0,0-1.731-4.272-14.603-13.475c-12.871-9.203-24.328-24.491-13.395-31.213
						C317.269,289.996,338.417,315.157,334.333,341.406z"/>
				</g>
				<g>
					<path style="fill:#49CE49;" d="M306.335,296.718c-2.399,1.475-3.719,3.363-4.184,5.508c0.51-0.475,1.113-0.934,1.828-1.373
						c10.933-6.722,34.438,14.304,30.353,40.554C338.417,315.157,317.269,289.996,306.335,296.718z"/>
				</g>
				<g>
					<g>
						<path style="fill:#347A34;" d="M342.925,384.539l-2-0.001c0-0.281,0.284-28.383,24.869-48.373
							c23.726-19.291,38.131-31.96,38.131-45.194h2c0,14.122-14.685,27.081-38.869,46.746
							C343.233,357.087,342.925,384.266,342.925,384.539z"/>
					</g>
					<g>
						<path style="fill:#347A34;" d="M328.766,381.679c-0.06-0.48-6.451-48.242-49.045-65.272l0.742-1.857
							c43.709,17.477,50.227,66.392,50.287,66.885L328.766,381.679z"/>
					</g>
					<g>
						<path style="fill:#347A34;" d="M332.428,380.004c-0.107-1.463-2.471-36.029,11.883-53.969
							c25.19-31.484,13.311-61.67,13.189-61.971l1.852-0.756c0.128,0.312,12.438,31.585-13.478,63.977
							c-13.861,17.322-11.477,52.222-11.451,52.572L332.428,380.004z"/>
					</g>
					<g>
						<path style="fill:#347A34;" d="M408.413,354.798c-28.617-17.057-55.388-1.291-55.653-1.13l-1.035-1.711
							c0.276-0.168,28.042-16.561,57.712,1.122L408.413,354.798z"/>
					</g>
					<g>
						<path style="fill:#347A34;" d="M324.085,364.034c-18.465-25.783-51.862-21.734-52.197-21.69l-0.26-1.982
							c0.348-0.049,34.928-4.239,54.083,22.509L324.085,364.034z"/>
					</g>
					<g>
						<path style="fill:#347A34;" d="M338.215,342.759l-1.938-0.494c8.311-32.608-14.64-60.827-14.873-61.108l1.54-1.275
							C323.184,280.169,346.783,309.148,338.215,342.759z"/>
					</g>
				</g>
				<g>
					<path style="fill:#49CE49;" d="M357.722,304.241c0,0,0.703-4.556-5.63-19.056c-6.333-14.5-8.333-33.5,4.5-33.667
						C369.425,251.352,374.685,283.797,357.722,304.241z"/>
				</g>
				<g>
					<path style="fill:#3AA33A;" d="M357.722,304.241c0,0,0.703-4.556-5.63-19.056c-6.333-14.5-4.968-28.167,4.667-28.167
						C364.689,257.019,374.685,283.797,357.722,304.241z"/>
				</g>
				<g>
					<path style="fill:#3AA33A;" d="M384.033,322.262c0,0,3.329-3.188,7.123-18.549s13.764-31.658,24.051-23.984
						C425.495,287.403,409.934,316.354,384.033,322.262z"/>
				</g>
				<g>
					<path style="fill:#347A34;" d="M384.039,322.267c0,0,2.973-2.846,6.36-16.561c3.387-13.715,12.289-28.266,21.474-21.414
						C421.058,291.143,407.164,316.992,384.039,322.267z"/>
				</g>
				<g>
					<path style="fill:#3AA33A;" d="M357.159,344.867c0,0,1.446-4.377-2.406-19.724c-3.852-15.347-2.687-34.416,9.998-32.461
						C377.435,294.637,377.265,327.504,357.159,344.867z"/>
				</g>
				<g>
					<path style="fill:#347A34;" d="M357.514,344.926c0,0,1.357-3.985-2.496-18.039c-3.853-14.053-2.898-31.462,9.359-29.564
						C376.635,299.221,376.762,329.244,357.514,344.926z"/>
				</g>
				<g>
					<path style="fill:#3AA33A;" d="M333.15,374.679c0,0,1.446-4.377-2.406-19.724s-2.687-34.416,9.998-32.461
						C353.426,324.449,353.256,357.317,333.15,374.679z"/>
				</g>
				<g>
					<path style="fill:#347A34;" d="M333.15,374.679c0,0,1.446-4.377-2.406-19.724s-4.32-30.391,8.364-28.436
						C351.793,328.474,353.256,357.317,333.15,374.679z"/>
				</g>
				<g>
					<path style="fill:#3AA33A;" d="M337.724,314.667c0,0-0.957-4.509-12.02-15.822s-19.669-28.369-7.729-33.075
						C329.915,261.064,346.337,289.536,337.724,314.667z"/>
				</g>
				<g>
					<path style="fill:#347A34;" d="M337.724,314.667c0,0-0.957-4.509-12.02-15.822s-16.101-24.993-6.612-29.16
						C326.698,266.346,346.337,289.536,337.724,314.667z"/>
				</g>
				<g>
					<path style="fill:#3AA33A;" d="M303.979,331.602c0,0-3.03-3.474-18.199-7.975c-15.169-4.501-30.987-15.216-22.844-25.136
						C271.078,288.57,299.277,305.456,303.979,331.602z"/>
				</g>
				<g>
					<path style="fill:#347A34;" d="M303.979,331.602c0,0-3.03-3.474-18.199-7.975c-15.169-4.501-26.73-14.483-20.105-22.358
						C272.777,292.827,299.277,305.456,303.979,331.602z"/>
				</g>
				<g>
					<path style="fill:#3AA33A;" d="M309.603,349.125c0,0-4.3-1.661-19.819,1.426c-15.519,3.087-34.507,0.98-31.927-11.592
						C260.438,326.387,293.257,328.184,309.603,349.125z"/>
				</g>
				<g>
					<path style="fill:#347A34;" d="M309.603,349.125c0,0-4.3-1.661-19.819,1.426c-15.519,3.087-30.94,2.081-28.359-10.491
						C264.005,327.488,293.257,328.184,309.603,349.125z"/>
				</g>
				<g>
					<path style="fill:#347A34;" d="M327.948,371.599c0,0-4.3-1.661-19.819,1.426c-15.519,3.087-34.507,0.98-31.927-11.592
						C278.783,348.861,311.602,350.658,327.948,371.599z"/>
				</g>
				<g>
					<path style="fill:#3AA33A;" d="M362.205,348.625c0,0,4.511-0.947,19.33,4.601c14.819,5.547,33.898,6.527,33.377-6.297
						C414.391,334.105,381.711,330.591,362.205,348.625z"/>
				</g>
				<g>
					<path style="fill:#347A34;" d="M362.205,348.625c0,0,4.533-1.004,19.33,4.601c10.89,4.125,29.411,7.117,28.89-5.707
						C409.904,334.695,379.05,333.144,362.205,348.625z"/>
				</g>
			</g>
			<g>
				<polygon style="fill:#D18133;" points="298.941,385.269 308.008,447.019 362.674,447.019 370.941,385.269 				"/>
				<path style="fill:#C46C23;" d="M369.562,395.571l1.379-10.302h-72l9.067,61.75h12.026
					C318.899,417.416,335.214,387.746,369.562,395.571z"/>
				<path style="fill:#D18133;" d="M369.608,390.019h-69.333c-3.85,0-7-3.15-7-7l0,0c0-3.85,3.15-7,7-7h69.333c3.85,0,7,3.15,7,7
					l0,0C376.608,386.869,373.458,390.019,369.608,390.019z"/>
			</g>
		</g>
		<g>
			<path style="fill:#388C38;" d="M180.079,354.659c0,0-14.139,10.086-3.639,25.586s20.886,19.881,18.376,38.63
				c13.207-28.606,16.572-45.856,10.765-57.106C199.773,350.519,185.245,346.159,180.079,354.659z"/>
			<path style="fill:#8CC64E;" d="M185.273,356.019c-4.995,1.11-9.368,4.38-12.105,8.606c-0.825,2.915-0.93,6.393,0.517,10.336
				C174.891,367.491,178.752,360.095,185.273,356.019z"/>
			<path style="fill:#8CC64E;" d="M202.592,357.376c-4.081-1.465-8.518-1.357-13.319,1.643c6.367,0,12.727,0.645,17.077,4.432
				c-0.238-0.573-0.489-1.138-0.77-1.682C204.747,360.155,203.73,358.689,202.592,357.376z"/>
			<path style="fill:#8CC64E;" d="M197.273,389.019c0,4.767-1.897,8.902-4.682,12.908c0.995,2.014,1.744,4.166,2.177,6.594
				C196.334,402.183,197.725,395.806,197.273,389.019z"/>
			<path style="fill:#8CC64E;" d="M193.273,367.019c-0.873,7.857-4.034,16.474-10.811,21.198c2.346,2.856,4.539,5.37,6.431,7.877
				c4.773-5.666,8.781-12.87,6.38-20.075c5.677,1.622,9.38,6.533,11.111,12.065c0.667-2.685,1.164-5.21,1.484-7.578
				C205.109,374.098,200.503,368.465,193.273,367.019z"/>
			<path style="fill:#506815;" d="M197.16,383.155c-0.376-3.792-1.003-7.569-2.007-11.261c-0.99-3.691-2.334-7.315-4.293-10.655
				c-1.004-1.651-2.168-3.233-3.623-4.574c-1.441-1.322-3.247-2.457-5.34-2.662c-0.258-0.022-0.517-0.053-0.777-0.065l-0.779,0.057
				c-0.527,0.003-1.015,0.204-1.523,0.308c-0.483,0.174-0.96,0.376-1.418,0.6c-0.427,0.271-0.89,0.504-1.285,0.814
				c-0.384,0.316-0.808,0.618-1.158,0.949l-1.049,0.995c-0.714,0.649-1.377,1.348-2.032,2.057c-2.622,2.826-4.955,5.94-6.849,9.314
				c-1.261,2.254-2.372,4.566-3.255,7.006h2.027c0.755-2.109,1.702-4.185,2.759-6.159c1.755-3.294,3.945-6.355,6.427-9.151
				c0.619-0.701,1.248-1.395,1.928-2.039l0.997-0.989c0.333-0.33,0.685-0.582,1.025-0.88c1.395-1.111,3.112-1.742,4.835-1.575
				c1.732,0.121,3.357,1.061,4.716,2.257c1.37,1.206,2.518,2.688,3.52,4.258c0.981,1.589,1.813,3.275,2.557,5.001
				c0.702,1.745,1.356,3.516,1.867,5.334c1.071,3.622,1.775,7.354,2.232,11.113c0.906,7.525,0.794,15.17-0.114,22.713
				C197.622,398.401,197.905,390.744,197.16,383.155z"/>
		</g>
		<g>
			<path style="fill:#5CAA2E;" d="M159.21,346.296c0,0-5.938-10.443-17.604-4.443c-11.667,6-7.712,40.5,5.561,60.167
				c3.773-14.333,10.048-29.234,21.661-37.367C180.439,356.519,170.481,343.905,159.21,346.296z"/>
			<path style="fill:#8CC64E;" d="M137.676,380.642c1.053,3.794,2.367,7.556,3.93,11.13c0.883-8.311,3.45-15.709,6.667-23.753
				C143.264,370.523,138.965,375.121,137.676,380.642z"/>
			<path style="fill:#8CC64E;" d="M146.833,380.498c-2.044,5.45-2.697,10.962-2.884,16.116c1.003,1.891,2.072,3.707,3.217,5.404
				c0.77-2.924,1.661-5.866,2.665-8.773C148.605,389.038,146.721,384.852,146.833,380.498z"/>
			<path style="fill:#8CC64E;" d="M155.273,351.019c-3.637-5.456-13.051-5.111-19.242-1.247c-1.326,4.466-1.629,10.279-1.034,16.602
				c3.477-5.689,9.624-9.768,15.275-8.355c5.094,1.698,6.587,9.879,8.757,16.596c1.4-1.96,2.917-3.804,4.573-5.49
				C162.417,362.287,159.645,356.12,155.273,351.019z"/>
			<path style="fill:#506815;" d="M161.649,345.777c-1.007,0.136-2.106,0.558-3.068,1.092c-0.958,0.568-1.9,1.199-2.698,2.001
				c-1.648,1.547-2.937,3.465-3.969,5.501l-0.737,1.552l-0.604,1.613l-0.303,0.807l-0.239,0.829l-0.477,1.66
				c-0.282,1.116-0.486,2.254-0.733,3.381l-0.561,3.43c-0.681,4.585-1.124,9.207-1.336,13.842
				c-0.193,4.633-0.199,9.287,0.242,13.911c-0.524-4.616-0.602-9.275-0.492-13.919c0.129-4.647,0.49-9.289,1.091-13.902l0.501-3.454
				c0.229-1.145,0.415-2.3,0.681-3.438l0.454-1.696l0.228-0.848l0.294-0.829l0.589-1.659l0.728-1.608
				c1.025-2.115,2.324-4.134,4.037-5.802c1.721-1.649,3.759-3.031,6.285-3.457L161.649,345.777z"/>
		</g>
	</g>
	<g>
		<g>
			<path style="fill:#5CAA2E;" d="M269.431,142.351c0,0-10.608-3.767-8.181-12.372s8.838-8.127,15.457-6.065
				c6.619,2.062,13.533,2.305,14.139,2.062c-5.943,12.372-5.216,15.526-13.221,16.375C269.62,143.2,269.431,142.351,269.431,142.351
				z"/>
			<path style="fill:#5CAA2E;" d="M266.708,84.13c0,0-8.005-1.213-18.922-12.008c-10.917-10.795-11.159-23.774-12.615-26.927
				c9.582-0.606,24.623-0.606,30.688,16.254C271.924,78.308,266.708,84.13,266.708,84.13z"/>
			<g>
				<path style="fill:#506815;" d="M267.438,81.144c-0.087-0.797-0.391-1.743-0.702-2.597c-0.332-0.869-0.707-1.729-1.135-2.566
					c-0.847-1.679-1.818-3.304-2.871-4.878c-2.106-3.149-4.508-6.107-7.024-8.956c-2.528-2.841-5.2-5.56-8.071-8.057
					c-1.433-1.25-2.919-2.443-4.483-3.529c-1.564-1.076-3.184-2.11-4.966-2.793c1.797,0.646,3.442,1.649,5.032,2.695
					c1.59,1.056,3.106,2.221,4.57,3.446c2.933,2.446,5.671,5.119,8.268,7.918c2.597,2.799,5.093,5.706,7.308,8.84
					c1.108,1.566,2.139,3.191,3.053,4.892c0.889,1.732,1.741,3.424,2.087,5.52L267.438,81.144z"/>
				<path style="fill:#506815;" d="M243.111,45.406c1.044,1.009,1.819,2.269,2.443,3.58c0.601,1.325,1.032,2.727,1.301,4.157
					l0.037,0.198l-0.199-0.046c-0.697-0.161-1.446-0.117-2.174-0.034c-0.731,0.088-1.459,0.224-2.182,0.385
					c-1.444,0.33-2.876,0.736-4.288,1.203c1.381-0.555,2.794-1.032,4.241-1.398c0.721-0.193,1.457-0.331,2.2-0.429
					c0.742-0.092,1.503-0.151,2.265,0.016l-0.161,0.152c-0.142-0.704-0.29-1.407-0.501-2.094c-0.196-0.692-0.462-1.36-0.731-2.025
					c-0.287-0.659-0.61-1.302-0.984-1.917C244.01,46.537,243.604,45.936,243.111,45.406z"/>
				<path style="fill:#506815;" d="M249.06,46.892c0.918,0.457,1.575,1.31,2.063,2.197c0.466,0.909,0.798,1.89,0.976,2.895
					c0.116,0.498,0.151,1.009,0.23,1.514c0.028,0.509,0.077,1.018,0.088,1.527c0.019,1.02-0.024,2.039-0.109,3.055l-0.012,0.147
					l-0.148-0.032c-1.057-0.23-2.127-0.431-3.214-0.459c-1.083-0.061-2.173-0.002-3.248,0.151c-1.077,0.145-2.141,0.39-3.177,0.721
					c-1.04,0.32-2.059,0.721-3.02,1.241c1.888-1.101,4.003-1.814,6.172-2.134c1.083-0.169,2.184-0.243,3.282-0.195
					c1.101,0.015,2.189,0.203,3.266,0.423l-0.16,0.114l0.108-1.512c0.029-0.504,0.021-1.009,0.034-1.514
					c-0.003-0.505-0.044-1.008-0.063-1.513c-0.07-0.499-0.097-1.006-0.204-1.498c-0.161-0.996-0.474-1.965-0.918-2.867
					C250.562,48.26,249.955,47.389,249.06,46.892z"/>
				<path style="fill:#506815;" d="M256.387,49.561c1.267,2.023,1.854,4.423,1.959,6.802c0.022,1.192-0.014,2.396-0.241,3.571
					c-0.187,1.182-0.524,2.334-0.919,3.463l-0.04,0.114l-0.119-0.034c-1.134-0.326-2.354-0.304-3.541-0.219
					c-1.194,0.097-2.38,0.295-3.556,0.542c-2.348,0.51-4.668,1.165-6.949,1.934c2.249-0.861,4.556-1.583,6.912-2.104
					c1.178-0.262,2.368-0.475,3.574-0.588c1.202-0.099,2.436-0.142,3.633,0.185l-0.159,0.08c0.171-0.565,0.387-1.116,0.545-1.685
					c0.132-0.575,0.318-1.139,0.395-1.726c0.24-1.159,0.29-2.346,0.284-3.526c-0.029-1.182-0.201-2.359-0.492-3.505
					C257.39,51.717,256.989,50.587,256.387,49.561z"/>
				<path style="fill:#506815;" d="M263.745,56.214c0.122,2.315,0.11,4.639-0.07,6.954c-0.081,1.158-0.218,2.313-0.425,3.459
					c-0.217,1.14-0.472,2.296-1.042,3.343l-0.047,0.087l-0.1-0.024c-1.015-0.24-2.102-0.196-3.159-0.096
					c-1.062,0.106-2.121,0.27-3.171,0.477c-2.098,0.426-4.183,0.938-6.247,1.525c2.036-0.68,4.107-1.258,6.212-1.695
					c1.051-0.223,2.113-0.402,3.184-0.523c1.069-0.113,2.162-0.18,3.247,0.06l-0.147,0.063c0.535-1.001,0.824-2.133,1.047-3.259
					c0.219-1.131,0.372-2.279,0.468-3.431C263.687,60.849,263.757,58.531,263.745,56.214z"/>
			</g>
			<path style="fill:#1C5E1C;" d="M272.591,113.726c0,0-5.233-16.011,4.115-21.833c9.348-5.822,19.537-0.364,26.087-5.094
				c-1.638,13.646-4.02,16.034-9.361,19.832C288.092,110.427,272.591,113.726,272.591,113.726z"/>
			<path style="fill:#1C5E1C;" d="M265.254,117.183c0,0-14.859,1.092-23.047-12.918c-8.187-14.01,1.274-26.092,2.365-32.878
				c12.008,4.131,21.781,13.223,24.222,24.209C271.235,106.582,265.922,115.909,265.254,117.183z"/>
			<g>
				<path style="fill:#506815;" d="M264.804,116.711c-0.907-0.632-1.52-1.327-2.178-2.063c-0.638-0.733-1.215-1.506-1.767-2.294
					c-1.1-1.578-2.072-3.229-2.984-4.908c-1.798-3.373-3.311-6.876-4.687-10.423c-1.379-3.547-2.598-7.159-3.556-10.842
					c-0.476-1.841-0.894-3.7-1.187-5.579c-0.285-1.877-0.515-3.779-0.399-5.678c-0.079,1.9,0.189,3.793,0.51,5.659
					c0.329,1.869,0.783,3.713,1.293,5.539c1.028,3.652,2.313,7.227,3.757,10.733c1.453,3.501,3.053,6.945,4.913,10.234
					c0.943,1.636,1.943,3.238,3.055,4.75c0.557,0.754,1.137,1.491,1.765,2.175c0.614,0.668,1.315,1.37,1.982,1.81L264.804,116.711z"
					/>
				<path style="fill:#506815;" d="M244.265,78.451c0.258,0.658,0.606,1.275,0.984,1.867c0.369,0.598,0.78,1.17,1.225,1.713
					c0.454,0.535,0.922,1.061,1.439,1.536c0.504,0.489,1.055,0.925,1.603,1.362l-0.2,0.08c0.135-0.74,0.46-1.404,0.805-2.042
					c0.351-0.637,0.742-1.248,1.162-1.838c0.828-1.188,1.755-2.301,2.743-3.354c-0.917,1.114-1.79,2.264-2.605,3.449
					c-0.406,0.594-0.781,1.208-1.115,1.841c-0.328,0.632-0.631,1.293-0.742,1.982l-0.034,0.209l-0.167-0.129
					c-1.125-0.87-2.139-1.88-3.025-2.989C245.464,81.025,244.708,79.797,244.265,78.451z"/>
				<path style="fill:#506815;" d="M241.35,82.488c0.41,1.132,1.028,2.176,1.731,3.144c0.699,0.973,1.498,1.874,2.388,2.675
					c0.905,0.781,1.85,1.525,2.895,2.112c0.5,0.329,1.055,0.564,1.581,0.846c0.539,0.259,1.102,0.463,1.647,0.71l-0.168,0.097
					c0.203-1.051,0.439-2.1,0.817-3.102c0.348-1.012,0.813-1.981,1.339-2.91c1.053-1.857,2.432-3.543,4.104-4.862
					c-0.815,0.684-1.536,1.473-2.19,2.307c-0.66,0.829-1.262,1.707-1.768,2.638c-0.51,0.927-0.957,1.892-1.288,2.897
					c-0.361,0.996-0.58,2.034-0.767,3.073l-0.028,0.154l-0.141-0.057c-1.122-0.452-2.223-0.963-3.252-1.603
					c-1.049-0.607-1.996-1.371-2.9-2.171C243.59,86.79,242.11,84.781,241.35,82.488z"/>
				<path style="fill:#506815;" d="M240.521,90.744c0.864,1.046,1.836,1.996,2.859,2.881c1.018,0.89,2.1,1.709,3.25,2.417
					c1.147,0.711,2.362,1.317,3.632,1.767c1.267,0.462,2.594,0.738,3.931,0.861l-0.134,0.11c0.157-1.192,0.629-2.292,1.144-3.346
					c0.53-1.052,1.141-2.056,1.792-3.032c1.302-1.953,2.767-3.791,4.34-5.526c-1.502,1.796-2.912,3.669-4.2,5.618
					c-0.637,0.979-1.233,1.986-1.745,3.033c-0.497,1.047-0.947,2.141-1.083,3.283l-0.014,0.12l-0.12-0.01
					c-2.737-0.227-5.343-1.277-7.635-2.731C244.24,94.73,242.195,92.879,240.521,90.744z"/>
				<path style="fill:#506815;" d="M245.76,101.925c1.918,0.977,3.872,1.883,5.867,2.679c1,0.391,2.015,0.747,3.049,1.023
					c1.031,0.27,2.097,0.485,3.144,0.415l-0.113,0.107c0.213-1.147,0.801-2.136,1.398-3.083c0.611-0.945,1.291-1.839,1.996-2.711
					c1.411-1.743,2.946-3.381,4.556-4.936c-1.544,1.621-3.027,3.298-4.426,5.041c-0.692,0.876-1.358,1.775-1.951,2.718
					c-0.579,0.94-1.143,1.937-1.326,3.007l-0.017,0.1l-0.096,0.007c-1.109,0.083-2.183-0.173-3.224-0.454
					c-1.042-0.293-2.057-0.666-3.056-1.072C249.564,103.955,247.629,102.996,245.76,101.925z"/>
			</g>
			<path style="fill:#1C5E1C;" d="M277.415,132.691c0,0,4.213-12.387,20.193-15.69c11.412-2.359,24.38-2.274,28.292,1.183
				c3.912,3.457,5.64,10.462,7.46,10.644c-2.001,2.001-4.367,3.457-10.734,8.096c-6.368,4.64-20.469,5.913-28.565,4.276
				C285.964,139.561,277.415,132.691,277.415,132.691z"/>
			<path style="fill:#1C5E1C;" d="M265.253,140.289c0.073-0.495-4.973-12.979-17.345-16.375
				c-12.372-3.396-24.744,2.062-27.413,8.187c-2.669,6.125-2.426,9.158-5.701,10.492c6.065,1.334,5.58,5.094,15.404,8.127
				C240.024,153.753,262.585,158.362,265.253,140.289z"/>
			<path style="fill:#347A34;" d="M264.404,104.871c0,0-12.251-18.922-26.078-25.108c-13.828-6.186-25.593,2.123-30.597,9.582
				c4.276,0.091,8.733,3.275,16.466,9.097C231.927,104.265,254.852,113.665,264.404,104.871z"/>
			<path style="fill:#388C38;" d="M278.595,94.622c0,0,4.912-16.557,25.29-21.469c20.378-4.912,28.929,1.456,30.93,6.55
				c-5.64,2.001-10.189,6.914-20.378,11.644C304.249,96.077,285.236,96.35,278.595,94.622z"/>
			<path style="fill:#506815;" d="M265.254,171.219c0,0,6.111-11.558,3.54-38.529c-2.571-26.97-3.576-49.424-0.344-61.304
				c-0.043,14.684-0.71,16.988-0.225,24.69c0.485,7.702,2.608,30.869,3.942,40.937c1.334,10.067-0.606,28.868-2.668,35.054
				C265.981,174.009,265.254,171.219,265.254,171.219z"/>
			<path style="fill:#388C38;" d="M268.064,81.219c0,0-7.156,0-10.553-6.792c-3.396-6.793,1.213-22.925,9.704-28.626
				c8.491-5.701,13.828-5.216,13.828-5.216s9.461,8.117,7.52,20.312C286.622,73.092,278.01,80.127,268.064,81.219z"/>
			<path style="fill:#388C38;" d="M268.794,121.549c0,0-7.668,1.637-8.668-4.185c-0.999-5.822,14.648-8.187,22.108-7.824
				c7.46,0.364,8.915,1.311,11.099,10.116c-3.639-2.475-5.64-4.112-9.825-1.565C279.323,120.639,276.464,123.399,268.794,121.549z"
				/>
			<g>
				<path style="fill:#506815;" d="M266.918,104.369c1.973-2.368,4.153-4.394,6.457-6.324c2.295-1.927,4.734-3.671,7.251-5.281
					c2.501-1.641,5.144-3.041,7.801-4.397c1.36-0.614,2.699-1.274,4.076-1.845c1.391-0.538,2.748-1.161,4.165-1.627
					c5.616-1.994,11.353-3.579,17.173-4.802c2.915-0.578,5.852-1.062,8.811-1.339c2.953-0.253,5.949-0.418,8.888,0.039
					c-2.945-0.396-5.93-0.171-8.869,0.142c-2.945,0.337-5.861,0.879-8.754,1.514c-5.768,1.336-11.467,3.037-16.994,5.128
					c-1.395,0.49-2.727,1.136-4.092,1.696c-1.352,0.593-2.663,1.274-3.995,1.908c-2.599,1.395-5.18,2.83-7.611,4.498
					c-2.448,1.637-4.812,3.402-7.024,5.337c-2.207,1.919-4.343,4.006-6.126,6.237L266.918,104.369z"/>
				<path style="fill:#506815;" d="M325.112,74.244c-0.788,0.046-1.512,0.396-2.184,0.776c-0.676,0.383-1.316,0.831-1.91,1.335
					c-0.598,0.498-1.173,1.023-1.72,1.579c-0.548,0.556-1.059,1.145-1.575,1.731l-0.09-0.29c1.422,0.414,2.743,1.072,3.982,1.842
					c1.239,0.772,2.408,1.647,3.498,2.609c-1.168-0.863-2.388-1.651-3.637-2.376c-1.258-0.704-2.555-1.36-3.935-1.729l-0.277-0.074
					l0.186-0.216c0.516-0.598,1.052-1.177,1.612-1.734c0.566-0.551,1.145-1.091,1.779-1.567c0.625-0.485,1.297-0.913,2.003-1.272
					C323.554,74.524,324.319,74.228,325.112,74.244z"/>
				<path style="fill:#506815;" d="M317.586,73.152c-1.826,1.21-3.534,2.583-5.167,4.031c-0.809,0.733-1.615,1.47-2.373,2.254
					c-0.773,0.771-1.491,1.592-2.21,2.411l-0.09-0.29c0.99,0.277,1.929,0.662,2.861,1.061c0.93,0.401,1.85,0.825,2.751,1.284
					c1.812,0.899,3.584,1.872,5.326,2.896c-1.803-0.912-3.618-1.796-5.444-2.65c-1.833-0.828-3.668-1.703-5.587-2.242l-0.274-0.077
					l0.184-0.213c1.436-1.665,2.995-3.225,4.669-4.648C313.908,75.55,315.684,74.244,317.586,73.152z"/>
				<path style="fill:#506815;" d="M307.039,73.456c-1.127,0.512-2.154,1.219-3.095,2.009c-0.947,0.785-1.804,1.677-2.537,2.66
					c-1.49,1.952-2.488,4.249-2.993,6.646l-0.137-0.213c2.137,0.51,4.138,1.475,5.92,2.725c1.785,1.246,3.402,2.725,4.784,4.393
					c-1.476-1.583-3.147-2.975-4.936-4.168c-0.897-0.596-1.841-1.113-2.811-1.569c-0.973-0.455-1.996-0.78-3.034-1.03l-0.174-0.042
					l0.037-0.171c0.523-2.441,1.563-4.788,3.118-6.747C302.732,75.999,304.742,74.392,307.039,73.456z"/>
				<path style="fill:#506815;" d="M295.271,77.58c-0.898,0.767-1.74,1.597-2.54,2.462c-0.807,0.858-1.567,1.759-2.25,2.714
					c-1.35,1.887-2.528,4.05-2.556,6.376l-0.136-0.174c1.624,0.439,3.167,1.139,4.566,2.051c1.405,0.902,2.698,1.972,3.828,3.188
					c-1.219-1.126-2.562-2.106-3.971-2.957c-1.414-0.842-2.921-1.536-4.51-1.934l-0.137-0.034l0.001-0.14
					c0.009-1.218,0.344-2.404,0.838-3.491c0.491-1.092,1.128-2.11,1.847-3.056C291.692,80.693,293.403,79.027,295.271,77.58z"/>
			</g>
			<g>
				<path style="fill:#506815;" d="M271.052,137.887c1.674-2.437,3.909-3.857,6.222-5.178c2.329-1.265,4.78-2.261,7.287-3.031
					c5.012-1.569,10.203-2.354,15.382-2.858c5.18-0.496,10.388-0.746,15.591-0.605c2.6,0.069,5.2,0.236,7.779,0.578
					c2.571,0.352,5.157,0.791,7.591,1.711c-2.451-0.869-5.039-1.255-7.61-1.553c-2.578-0.289-5.173-0.402-7.765-0.418
					c-5.187-0.035-10.369,0.319-15.518,0.918c-5.137,0.624-10.256,1.543-15.129,3.206c-2.437,0.817-4.796,1.852-6.999,3.121
					c-1.113,0.619-2.138,1.365-3.124,2.141c-0.469,0.413-0.942,0.822-1.362,1.273c-0.41,0.432-0.845,0.95-1.085,1.371
					L271.052,137.887z"/>
				<path style="fill:#506815;" d="M325.584,122.864c-0.768-0.114-1.537,0.072-2.262,0.298c-0.73,0.228-1.439,0.525-2.115,0.887
					c-0.679,0.354-1.342,0.741-1.983,1.161c-0.642,0.421-1.257,0.881-1.875,1.338l-0.028-0.298c1.291,0.68,2.439,1.573,3.485,2.559
					c1.046,0.987,2.006,2.06,2.872,3.201c-0.961-1.061-1.986-2.06-3.052-3.003c-1.078-0.926-2.203-1.812-3.463-2.441l-0.255-0.127
					l0.226-0.171c0.62-0.468,1.257-0.913,1.911-1.334c0.659-0.412,1.328-0.812,2.037-1.138c0.702-0.337,1.437-0.608,2.191-0.808
					C324.027,122.815,324.824,122.689,325.584,122.864z"/>
				<path style="fill:#506815;" d="M318.514,120.304c-2.005,0.786-3.932,1.751-5.801,2.804c-1.87,1.053-3.667,2.233-5.372,3.532
					l-0.028-0.298c0.901,0.463,1.734,1.02,2.557,1.588c0.821,0.571,1.627,1.16,2.409,1.78c1.576,1.224,3.099,2.512,4.584,3.842
					c-1.565-1.234-3.147-2.445-4.746-3.628c-1.61-1.16-3.213-2.365-4.962-3.266l-0.252-0.13l0.224-0.168
					C310.582,123.767,314.411,121.637,318.514,120.304z"/>
				<path style="fill:#506815;" d="M308.241,118.466c-1.186,0.26-2.316,0.725-3.382,1.286c-1.071,0.556-2.077,1.233-2.985,2.021
					c-1.834,1.56-3.266,3.557-4.237,5.754l-0.089-0.232c0.973,0.469,1.913,1.004,2.772,1.654c0.855,0.65,1.679,1.346,2.409,2.133
					c1.482,1.549,2.757,3.29,3.768,5.169c-1.118-1.815-2.462-3.482-3.958-4.981c-0.749-0.75-1.562-1.432-2.408-2.061
					c-0.85-0.629-1.775-1.143-2.726-1.591l-0.16-0.075l0.07-0.158c0.997-2.236,2.48-4.273,4.378-5.827
					C303.586,120.011,305.847,118.893,308.241,118.466z"/>
				<path style="fill:#506815;" d="M296.027,120.028c-1.019,0.549-1.996,1.17-2.941,1.833c-0.95,0.654-1.865,1.36-2.716,2.132
					c-1.682,1.527-3.262,3.355-3.754,5.58l-0.096-0.195c1.48,0.745,2.834,1.721,4.007,2.874c1.181,1.144,2.223,2.428,3.079,3.822
					c-0.958-1.324-2.065-2.532-3.262-3.627c-1.202-1.089-2.522-2.052-3.977-2.751l-0.126-0.06l0.029-0.135
					c0.253-1.167,0.816-2.236,1.513-3.175c0.696-0.945,1.516-1.788,2.4-2.544C291.956,122.269,293.939,121.028,296.027,120.028z"/>
			</g>
			<g>
				<path style="fill:#506815;" d="M271.517,144.805c-0.245-0.338-0.672-0.753-1.077-1.083c-0.41-0.351-0.866-0.66-1.324-0.964
					c-0.934-0.586-1.922-1.105-2.955-1.536c-2.058-0.881-4.234-1.507-6.438-2.005c-4.429-0.94-8.981-1.298-13.531-1.394
					c-4.556-0.084-9.118,0.035-13.657,0.466c-2.268,0.221-4.532,0.509-6.77,0.945c-2.232,0.442-4.471,0.955-6.574,1.847
					c2.086-0.934,4.319-1.491,6.547-1.979c2.235-0.481,4.499-0.813,6.768-1.08c4.542-0.522,9.117-0.73,13.689-0.736
					c4.572-0.007,9.171,0.226,13.702,1.072c2.259,0.45,4.503,1.033,6.666,1.895c1.084,0.422,2.138,0.939,3.152,1.541
					c0.501,0.314,0.999,0.635,1.467,1.013c0.48,0.386,0.908,0.743,1.349,1.319L271.517,144.805z"/>
				<path style="fill:#506815;" d="M221.587,135.437c1.693-0.086,3.391,0.208,5.022,0.677c1.628,0.49,3.192,1.191,4.656,2.057
					l0.223,0.132l-0.226,0.129c-0.724,0.414-1.337,1.028-1.91,1.656c-0.572,0.634-1.101,1.311-1.609,2.003
					c-1.009,1.39-1.946,2.838-2.82,4.323c0.781-1.538,1.649-3.034,2.633-4.456c0.483-0.717,1.017-1.402,1.591-2.054
					c0.579-0.645,1.192-1.28,1.967-1.735l-0.003,0.261c-0.727-0.418-1.46-0.831-2.227-1.172c-0.758-0.364-1.552-0.639-2.345-0.915
					c-0.798-0.261-1.614-0.471-2.441-0.625C223.271,135.557,222.432,135.44,221.587,135.437z"/>
				<path style="fill:#506815;" d="M224.923,130.525c2.874-0.146,5.75,0.6,8.348,1.825c1.285,0.644,2.551,1.354,3.684,2.249
					c1.163,0.855,2.211,1.853,3.203,2.899l0.127,0.134l-0.163,0.097c-1.087,0.643-2.16,1.32-3.13,2.134
					c-0.993,0.785-1.892,1.684-2.728,2.634c-0.841,0.948-1.58,1.984-2.245,3.063c-0.671,1.076-1.264,2.206-1.699,3.403
					c0.798-2.42,2.138-4.653,3.792-6.596c0.831-0.969,1.727-1.889,2.721-2.696c0.97-0.837,2.047-1.536,3.141-2.202l-0.037,0.23
					c-0.512-0.496-0.984-1.032-1.508-1.514c-0.542-0.462-1.048-0.969-1.632-1.379c-1.109-0.899-2.352-1.615-3.617-2.269
					c-1.278-0.636-2.63-1.117-4.015-1.464C227.784,130.718,226.357,130.492,224.923,130.525z"/>
				<path style="fill:#506815;" d="M233.898,126.098c3.082,0.912,6.018,2.347,8.632,4.237c2.605,1.885,4.908,4.296,6.328,7.227
					l0.063,0.131l-0.13,0.067c-1.222,0.63-2.266,1.581-3.239,2.569c-0.966,1.003-1.853,2.084-2.693,3.199
					c-1.663,2.243-3.191,4.591-4.596,7.012c1.307-2.475,2.773-4.871,4.436-7.131c0.83-1.13,1.709-2.227,2.673-3.252
					c0.973-1.01,2.015-1.988,3.282-2.662l-0.066,0.197c-0.706-1.426-1.586-2.769-2.646-3.964c-1.049-1.203-2.249-2.274-3.535-3.225
					c-1.285-0.954-2.66-1.787-4.087-2.516C236.899,127.247,235.427,126.593,233.898,126.098z"/>
				<path style="fill:#506815;" d="M248.724,127.068c1.985,1.583,3.875,3.288,5.629,5.13c0.878,0.919,1.725,1.872,2.495,2.89
					c0.756,1.021,1.499,2.091,1.874,3.35l0.033,0.111l-0.105,0.061c-1.121,0.649-2.009,1.683-2.826,2.717
					c-0.815,1.048-1.552,2.16-2.252,3.292c-1.383,2.276-2.659,4.622-3.845,7.012c1.086-2.438,2.296-4.825,3.675-7.116
					c0.689-1.145,1.415-2.271,2.225-3.34c0.817-1.055,1.688-2.114,2.88-2.827l-0.072,0.171c-0.362-1.183-1.056-2.262-1.796-3.276
					c-0.748-1.017-1.576-1.976-2.438-2.903C252.467,130.496,250.627,128.746,248.724,127.068z"/>
			</g>
			<g>
				<path style="fill:#506815;" d="M267.239,108.019c-7.752-6.037-16.365-11.028-25.582-14.534
					c-9.205-3.498-19.063-5.486-28.974-5.253c9.901-0.481,19.863,1.26,29.229,4.554c9.381,3.301,18.215,8.123,26.228,14.047
					L267.239,108.019z"/>
				<path style="fill:#506815;" d="M219.025,83.408c0.804-0.013,1.572,0.316,2.281,0.677c0.703,0.388,1.363,0.852,1.98,1.364
					c1.234,1.028,2.305,2.228,3.307,3.471l0.172,0.214l-0.265,0.077c-1.379,0.398-2.662,1.1-3.903,1.849
					c-1.231,0.769-2.429,1.604-3.573,2.513c1.06-1.007,2.204-1.929,3.423-2.747c1.218-0.817,2.527-1.522,3.951-1.968l-0.093,0.29
					c-0.502-0.611-0.997-1.227-1.531-1.81c-0.532-0.585-1.095-1.137-1.68-1.666c-0.584-0.53-1.211-1.012-1.882-1.423
					C220.547,83.842,219.824,83.458,219.025,83.408z"/>
				<path style="fill:#506815;" d="M226.451,82.25c1.901,1.176,3.661,2.572,5.317,4.078c1.651,1.512,3.18,3.159,4.582,4.908
					l0.169,0.211l-0.263,0.079c-1.906,0.577-3.716,1.507-5.524,2.386c-1.801,0.907-3.589,1.845-5.364,2.811
					c1.709-1.078,3.451-2.106,5.236-3.058c0.888-0.485,1.795-0.935,2.714-1.362c0.921-0.424,1.851-0.833,2.836-1.13l-0.093,0.29
					c-0.702-0.861-1.404-1.723-2.162-2.537c-0.743-0.827-1.537-1.607-2.332-2.385c-0.797-0.777-1.629-1.517-2.482-2.233
					C228.237,83.587,227.367,82.887,226.451,82.25z"/>
				<path style="fill:#506815;" d="M236.856,82.571c1.174,0.507,2.251,1.226,3.236,2.047c0.971,0.838,1.867,1.775,2.615,2.824
					c0.739,1.051,1.402,2.169,1.876,3.369c0.516,1.183,0.857,2.431,1.135,3.688l0.038,0.169l-0.176,0.045
					c-1.043,0.268-2.065,0.628-3.034,1.113c-0.964,0.491-1.895,1.051-2.781,1.681c-1.759,1.273-3.393,2.741-4.825,4.392
					c1.334-1.734,2.908-3.289,4.661-4.616c1.752-1.326,3.741-2.376,5.895-2.927l-0.138,0.214c-0.281-1.232-0.591-2.464-1.091-3.627
					c-0.449-1.185-1.106-2.275-1.799-3.331c-0.707-1.051-1.563-1.998-2.5-2.852C239.035,83.902,238.003,83.134,236.856,82.571z"/>
				<path style="fill:#506815;" d="M248.466,86.946c1.883,1.569,3.588,3.367,5.007,5.385c0.711,1.007,1.327,2.088,1.802,3.234
					c0.475,1.143,0.792,2.375,0.8,3.634l0.001,0.141l-0.137,0.037c-1.592,0.429-3.087,1.178-4.481,2.074
					c-1.389,0.907-2.704,1.944-3.891,3.121c1.093-1.267,2.354-2.393,3.736-3.352c1.377-0.967,2.91-1.725,4.541-2.197l-0.136,0.177
					c-0.022-2.415-1.147-4.691-2.477-6.703c-0.669-1.017-1.424-1.98-2.226-2.902C250.209,88.667,249.369,87.774,248.466,86.946z"/>
			</g>
			<g>
				<path style="fill:#506815;" d="M267.006,86.154c-0.237-1.08-0.216-2.006-0.199-2.993c0.029-0.971,0.13-1.931,0.259-2.883
					c0.263-1.905,0.67-3.778,1.14-5.63c0.969-3.697,2.236-7.296,3.633-10.836c1.395-3.541,2.952-7.02,4.748-10.375
					c0.901-1.675,1.855-3.324,2.916-4.903c1.064-1.572,2.187-3.125,3.561-4.44c-1.347,1.342-2.436,2.914-3.467,4.502
					c-1.027,1.596-1.946,3.258-2.81,4.946c-1.724,3.379-3.207,6.877-4.526,10.432c-1.31,3.557-2.472,7.172-3.339,10.85
					c-0.417,1.841-0.771,3.696-0.98,5.561c-0.102,0.932-0.177,1.867-0.18,2.795c-0.003,0.907,0.036,1.899,0.227,2.674
					L267.006,86.154z"/>
				<path style="fill:#506815;" d="M277.893,44.116c-0.257,0.658-0.42,1.347-0.545,2.039c-0.135,0.69-0.221,1.389-0.263,2.09
					c-0.03,0.702-0.043,1.405,0.014,2.105c0.039,0.701,0.147,1.395,0.253,2.089l-0.201-0.077c0.602-0.452,1.291-0.718,1.977-0.953
					c0.69-0.229,1.392-0.413,2.1-0.561c1.414-0.31,2.851-0.499,4.291-0.601c-1.43,0.196-2.851,0.447-4.254,0.764
					c-0.701,0.16-1.394,0.356-2.068,0.595c-0.67,0.242-1.342,0.521-1.89,0.952l-0.167,0.131l-0.035-0.208
					c-0.236-1.403-0.295-2.833-0.193-4.248C277.027,46.821,277.305,45.406,277.893,44.116z"/>
				<path style="fill:#506815;" d="M273.013,45.102c-0.468,1.11-0.723,2.296-0.863,3.484c-0.147,1.188-0.172,2.393-0.062,3.585
					c0.134,1.188,0.324,2.376,0.693,3.516c0.144,0.582,0.392,1.13,0.587,1.694c0.22,0.556,0.495,1.089,0.728,1.639l-0.189-0.043
					c0.863-0.634,1.747-1.244,2.706-1.723c0.943-0.507,1.941-0.903,2.959-1.228c2.034-0.649,4.19-0.951,6.314-0.785
					c-1.063-0.051-2.128,0.039-3.174,0.207c-1.048,0.161-2.085,0.397-3.089,0.737c-1.004,0.335-1.987,0.74-2.912,1.253
					c-0.941,0.486-1.806,1.1-2.649,1.736l-0.125,0.094l-0.065-0.137c-0.517-1.094-0.979-2.216-1.3-3.384
					c-0.358-1.157-0.535-2.361-0.656-3.562C271.737,49.783,272.014,47.303,273.013,45.102z"/>
				<path style="fill:#506815;" d="M266.8,50.603c-0.075,1.354-0.007,2.712,0.144,4.056c0.143,1.345,0.382,2.68,0.746,3.981
					c0.36,1.301,0.84,2.571,1.468,3.763c0.617,1.199,1.404,2.303,2.302,3.301l-0.173-0.01c0.925-0.768,2.018-1.256,3.112-1.681
					c1.103-0.413,2.234-0.736,3.374-1.01c2.282-0.551,4.605-0.906,6.938-1.113c-2.322,0.3-4.629,0.718-6.898,1.275
					c-1.132,0.287-2.253,0.621-3.34,1.043c-1.076,0.432-2.149,0.93-3.023,1.676l-0.092,0.079l-0.082-0.089
					c-1.856-2.025-3.057-4.565-3.754-7.188C266.825,56.054,266.58,53.306,266.8,50.603z"/>
				<path style="fill:#506815;" d="M263.058,62.37c0.745,2.019,1.565,4.011,2.49,5.949c0.469,0.966,0.973,1.916,1.545,2.821
					c0.574,0.898,1.21,1.779,2.028,2.439l-0.156,0.002c0.935-0.698,2.038-1.025,3.119-1.315c1.09-0.279,2.196-0.475,3.306-0.635
					c2.219-0.322,4.458-0.483,6.696-0.532c-2.234,0.142-4.462,0.367-6.671,0.697c-1.103,0.174-2.202,0.382-3.277,0.672
					c-1.064,0.297-2.154,0.646-3.015,1.308l-0.08,0.062l-0.076-0.06c-0.871-0.692-1.486-1.609-2.059-2.521
					c-0.566-0.923-1.059-1.885-1.517-2.862C264.473,66.442,263.703,64.424,263.058,62.37z"/>
			</g>
			<g>
				<path style="fill:#506815;" d="M268.111,110.729c0.666-0.07,1.133-0.066,1.704-0.083c0.547-0.004,1.093-0.01,1.639,0.003
					c1.091,0.022,2.182,0.076,3.268,0.17c2.173,0.179,4.339,0.502,6.452,1.045c2.104,0.551,4.202,1.227,6.092,2.327
					c1.891,1.076,3.603,2.49,4.853,4.275c-1.301-1.75-3.039-3.102-4.94-4.115c-1.899-1.036-3.995-1.646-6.089-2.133
					c-2.104-0.478-4.254-0.738-6.407-0.854c-1.076-0.063-2.155-0.086-3.233-0.078c-0.539,0.002-1.077,0.023-1.614,0.042
					c-0.512,0.024-1.13,0.063-1.543,0.106L268.111,110.729z"/>
				<path style="fill:#506815;" d="M279.566,117.546c0.119-1.343,0.329-2.691,0.826-3.973c0.13-0.318,0.267-0.638,0.478-0.925
					c0.19-0.289,0.47-0.576,0.832-0.697c0.718-0.214,1.403-0.13,2.084-0.072c1.353,0.186,2.675,0.511,3.954,0.965
					c1.248,0.477,2.594,0.966,3.495,2.002c-0.467-0.491-1.084-0.789-1.698-1.048c-0.613-0.267-1.243-0.498-1.885-0.689
					c-1.279-0.393-2.587-0.717-3.909-0.87c-0.649-0.072-1.345-0.145-1.927,0.021c-0.567,0.185-0.885,0.849-1.167,1.42
					C280.124,114.9,279.815,116.225,279.566,117.546z"/>
				<path style="fill:#506815;" d="M271.439,119.002c0.024-1.71,0.244-3.436,0.829-5.07c0.291-0.814,0.701-1.607,1.313-2.255
					c0.607-0.669,1.497-1.02,2.34-1.186c1.716-0.309,3.447-0.297,5.158-0.186c1.713,0.112,3.414,0.34,5.096,0.659
					c-1.701-0.186-3.407-0.317-5.111-0.379c-1.7-0.054-3.419-0.064-5.07,0.262c-0.826,0.156-1.611,0.456-2.177,1.061
					c-0.578,0.589-0.968,1.35-1.29,2.125C271.913,115.605,271.595,117.302,271.439,119.002z"/>
			</g>
		</g>
		<g>
			<polygon style="fill:#D18133;" points="232.83,170.736 241.897,232.486 296.564,232.486 304.83,170.736 			"/>
			<path style="fill:#C46C23;" d="M303.451,181.038l1.379-10.302h-72l9.067,61.75h12.026
				C252.788,202.883,269.103,173.212,303.451,181.038z"/>
			<path style="fill:#D18133;" d="M303.497,175.486h-69.333c-3.85,0-7-3.15-7-7l0,0c0-3.85,3.15-7,7-7h69.333c3.85,0,7,3.15,7,7l0,0
				C310.497,172.336,307.347,175.486,303.497,175.486z"/>
		</g>
		<g>
			<path style="fill:#1C5E1C;" d="M276.412,153.887c0,0,5.579-10.743,15.526-7.589c9.946,3.154,19.407,12.857,18.801,20.014
				c-0.607,7.156,0.849,10.917,0.849,10.917s-1.941-1.577-7.399-0.728c-5.458,0.849-15.526-0.364-22.44-7.52
				S274.207,157.021,276.412,153.887z"/>
			<g>
				<path style="fill:#506815;" d="M270.516,149.586c2.117-0.489,4.017-0.117,5.912,0.326c1.877,0.483,3.676,1.186,5.41,2.002
					c3.461,1.657,6.653,3.781,9.706,6.052c3.052,2.272,6.004,4.684,8.772,7.295c1.381,1.307,2.723,2.659,3.969,4.096
					c1.239,1.438,2.444,2.928,3.354,4.598c-0.943-1.651-2.175-3.113-3.439-4.523c-1.272-1.408-2.636-2.73-4.038-4.005
					c-2.811-2.548-5.799-4.893-8.884-7.096c-3.089-2.189-6.311-4.206-9.748-5.747c-1.721-0.758-3.493-1.397-5.307-1.814
					c-0.904-0.223-1.825-0.344-2.739-0.415c-0.891-0.043-1.881-0.024-2.621,0.197L270.516,149.586z"/>
				<path style="fill:#506815;" d="M308.969,168.959c-0.568-0.42-1.191-0.758-1.826-1.059c-0.631-0.31-1.283-0.576-1.949-0.8
					c-0.669-0.212-1.345-0.408-2.036-0.536c-0.687-0.146-1.385-0.223-2.082-0.302l0.127-0.174c0.279,0.699,0.356,1.434,0.402,2.157
					c0.041,0.726,0.035,1.452-0.008,2.174c-0.07,1.446-0.264,2.882-0.542,4.299c0.185-1.431,0.314-2.869,0.375-4.306
					c0.028-0.719,0.02-1.439-0.034-2.152c-0.058-0.71-0.153-1.431-0.425-2.074l-0.083-0.195l0.21,0.021
					c1.415,0.139,2.811,0.456,4.151,0.925C306.585,167.415,307.879,168.054,308.969,168.959z"/>
				<path style="fill:#506815;" d="M309.294,163.991c-0.949-0.742-2.027-1.298-3.137-1.744c-1.109-0.453-2.264-0.792-3.444-0.997
					c-1.181-0.181-2.378-0.309-3.574-0.251c-0.599-0.013-1.193,0.083-1.789,0.124c-0.594,0.067-1.18,0.193-1.773,0.274l0.091-0.172
					c0.386,0.999,0.744,2.012,0.956,3.062c0.243,1.042,0.364,2.11,0.412,3.177c0.095,2.133-0.178,4.293-0.893,6.3
					c0.327-1.013,0.518-2.064,0.63-3.118c0.119-1.053,0.162-2.117,0.096-3.174c-0.061-1.056-0.195-2.111-0.448-3.139
					c-0.223-1.035-0.589-2.031-0.983-3.01l-0.058-0.145l0.149-0.027c1.191-0.213,2.395-0.365,3.606-0.37
					c1.211-0.043,2.419,0.101,3.61,0.298C305.109,161.536,307.431,162.451,309.294,163.991z"/>
				<path style="fill:#506815;" d="M305.609,156.556c-1.287-0.427-2.616-0.716-3.952-0.922c-1.335-0.214-2.687-0.332-4.038-0.321
					c-1.35,0.007-2.701,0.139-4.016,0.433c-1.318,0.282-2.589,0.753-3.788,1.359l0.055-0.165c0.5,1.093,0.685,2.276,0.809,3.443
					c0.11,1.172,0.126,2.348,0.093,3.521c-0.065,2.346-0.33,4.682-0.74,6.988c0.318-2.32,0.517-4.656,0.573-6.991
					c0.019-1.168-0.011-2.337-0.133-3.496c-0.135-1.152-0.336-2.317-0.827-3.357l-0.052-0.11l0.107-0.055
					c2.439-1.262,5.205-1.757,7.919-1.744C300.341,155.154,303.057,155.636,305.609,156.556z"/>
				<path style="fill:#506815;" d="M295.23,149.867c-2.144,0.191-4.28,0.462-6.393,0.848c-1.055,0.2-2.104,0.438-3.126,0.754
					c-1.017,0.319-2.034,0.703-2.884,1.32l0.039-0.15c0.429,1.085,0.456,2.235,0.454,3.355c-0.015,1.125-0.116,2.244-0.251,3.357
					c-0.269,2.227-0.699,4.429-1.237,6.602c0.447-2.193,0.812-4.403,1.071-6.622c0.121-1.11,0.207-2.225,0.208-3.339
					c-0.009-1.104-0.06-2.248-0.474-3.252l-0.039-0.094l0.078-0.057c0.896-0.66,1.941-1.014,2.972-1.329
					c1.039-0.305,2.096-0.529,3.159-0.715C290.93,150.168,293.078,149.952,295.23,149.867z"/>
			</g>
		</g>
	</g>
</g>
</svg>
